<svg width="168" height="54" viewBox="0 0 168 54" fill="none" xmlns="http://www.w3.org/2000/svg">
<path fill-rule="evenodd" clip-rule="evenodd" d="M15.4324 0.150276C15.4619 0.155592 15.5237 0.171543 15.5533 0.179643C15.7089 0.523883 15.8916 0.905581 15.7197 1.28475C15.6499 1.3007 15.513 1.33563 15.4431 1.35461C15.5666 1.38954 15.6875 1.42447 15.811 1.46218C15.8485 1.66645 15.9183 1.8816 15.8485 2.08865C15.7251 2.25242 15.4995 2.2552 15.3169 2.31443C15.3196 2.52123 15.325 2.72828 15.3357 2.93533C15.4028 3.08036 15.4619 3.22844 15.5183 3.37626C15.9264 3.80099 16.603 3.62887 16.9977 3.26868C16.9332 3.12618 16.9037 2.97304 16.8715 2.82244C17.0433 2.63159 17.2823 2.58324 17.5266 2.58577C17.6689 2.75511 17.7682 2.98645 17.6609 3.2016C17.5319 3.34133 17.3709 3.44612 17.2367 3.58331C17.1534 3.92476 17.105 4.36012 17.3789 4.63172C17.6178 4.81168 17.9266 4.70158 18.187 4.63425C18.2676 4.48643 18.3964 4.38442 18.5521 4.32798C18.4609 4.16649 18.2999 4.00525 18.3562 3.80377C18.4098 3.6638 18.5388 3.56964 18.6327 3.45422C18.7294 3.45422 18.826 3.45422 18.9227 3.45422C19.0059 3.54559 19.0918 3.63696 19.1777 3.72834C19.4113 3.34917 19.8919 3.47295 20.2597 3.46763C20.2597 3.52686 20.2544 3.64228 20.2517 3.70151C20.0529 3.79846 19.8624 3.90578 19.669 4.01614C19.4006 4.27963 19.1402 4.55376 18.8663 4.81447C18.7778 4.97317 18.6757 5.12631 18.5468 5.26071C18.2703 5.54319 18.1279 5.92742 17.8433 6.20433C17.3252 5.87098 16.8017 5.54851 16.2432 5.29033C15.572 5.08075 14.9491 4.71246 14.2376 4.65576C13.1638 4.39505 12.0522 4.492 10.9567 4.50794C10.8386 3.98905 10.7259 3.47016 10.648 2.94343C10.5111 2.58577 10.393 2.22558 10.2829 1.86008C10.146 1.54799 9.88824 1.30348 9.78356 0.975441C10.2211 0.962026 10.5218 1.26323 10.7769 1.57507C10.9246 1.56976 11.0749 1.56698 11.2226 1.56166C11.2978 1.70138 11.4401 1.82237 11.4428 1.9917C11.3729 2.17724 11.2413 2.33038 11.1528 2.50781C11.193 3.02139 11.7192 3.45422 12.2267 3.24717C12.3582 2.98646 12.4818 2.72018 12.5892 2.44605C12.5838 2.40302 12.5703 2.31696 12.5623 2.27393C12.2857 2.14231 12.2321 1.74972 12.4522 1.54014C12.5678 1.38144 12.7824 1.44598 12.9489 1.43788C13.0268 1.61532 13.1879 1.79022 13.1288 1.99981C13.059 2.08308 12.9865 2.16104 12.9114 2.23622C12.9569 2.35189 13.0053 2.46756 13.0536 2.58324C13.196 2.70144 13.3221 2.84117 13.4376 2.98646C13.6872 3.04543 13.9853 3.17452 14.2162 2.99709C14.5008 2.77688 14.6968 2.45694 14.788 2.10991C14.6833 2.0803 14.5813 2.04815 14.4766 2.01854C14.4389 1.80895 14.3235 1.56419 14.4578 1.36803C14.6028 1.25235 14.788 1.2121 14.9598 1.15566C14.8713 1.03188 14.7908 0.892164 14.8364 0.73346C15.0189 0.523879 15.2364 0.346442 15.4324 0.150276ZM10.8923 4.76081C11.8804 4.62893 12.8899 4.64792 13.8752 4.79042C14.6968 5.0324 15.5452 5.20958 16.3103 5.59964C16.842 5.86035 17.3709 6.14511 17.8246 6.52959C17.7628 6.67766 17.6769 6.95711 17.4621 6.81739C16.2298 6.02437 14.8311 5.49991 13.3839 5.2716C13.0053 5.25261 12.6268 5.223 12.2509 5.18832C11.8267 5.15061 11.4106 5.26603 10.989 5.25262C10.7984 5.15593 10.895 4.92483 10.8923 4.76081ZM11.0024 5.66393C11.9341 5.49206 12.914 5.4784 13.8403 5.68291C15.0029 6.00539 16.1439 6.44631 17.1561 7.11303C17.6125 7.4598 18.0555 7.82277 18.5602 8.09436C19.1214 8.24218 19.7577 8.47884 20.3027 8.15334C20.7779 7.86048 20.7914 7.2287 20.6947 6.73942C20.6786 6.48124 20.4504 6.32811 20.3027 6.14257C20.0771 6.12637 19.8489 6.12638 19.6207 6.14511C19.5617 6.25268 19.5027 6.36304 19.4436 6.47315C19.5428 6.51896 19.6395 6.56452 19.7388 6.61034C19.8221 6.71513 19.908 6.8227 19.994 6.92749C19.9912 6.99735 19.9886 7.13733 19.9859 7.20719C19.9106 7.31476 19.8383 7.42208 19.7657 7.52966C19.6207 7.5942 19.4757 7.66153 19.3362 7.73671C18.9979 7.69646 18.6059 7.49219 18.5737 7.11581C18.3884 6.38455 19.1294 5.72848 19.8221 5.75809C20.5336 5.69354 21.1431 6.21522 21.5028 6.77967C21.782 7.14264 21.782 7.63445 21.6907 8.06221C21.5645 8.37937 21.3525 8.6535 21.1565 8.93041C20.8209 9.11594 20.5041 9.39007 20.1013 9.39007C19.8516 9.40348 19.5993 9.37944 19.3522 9.34704C19.6449 9.4655 19.8919 9.66419 20.1577 9.83631C20.7806 10.1912 21.4625 10.479 22.1875 10.5192C22.6948 10.5435 23.256 10.3312 23.4789 9.84163C23.4493 9.71811 23.3956 9.5999 23.3527 9.48144C23.052 9.1534 22.6278 8.97597 22.3378 8.63477C22.2439 8.29863 22.2116 7.94376 22.3378 7.6104C22.5016 7.47068 22.6546 7.31198 22.8507 7.2206C23.5514 7.03785 24.3326 7.48663 24.577 8.15612C24.7542 8.51378 24.6951 8.91952 24.687 9.30426C24.534 9.67786 24.4293 10.0917 24.1313 10.3876C23.7044 10.823 23.154 11.1966 22.5284 11.2343C22.0828 11.2801 21.6156 11.2854 21.1887 11.132C20.8585 10.9736 20.5524 10.7665 20.2436 10.5757C19.5428 10.1188 19.0166 9.44651 18.3347 8.96812C18.2836 8.89826 18.2327 8.82815 18.1818 8.75829C17.8514 8.59984 17.6206 8.30673 17.3226 8.10221C16.4768 7.48409 15.5774 6.92749 14.6054 6.53237C14.2564 6.441 13.9288 6.2823 13.5799 6.18282C12.4522 5.92743 11.2844 5.96514 10.146 6.12638C10.3849 5.89528 10.6936 5.77429 11.0024 5.66393ZM8.63981 6.78777C9.19278 6.48403 9.83452 6.44631 10.4413 6.31469C11.1985 6.27166 11.961 6.26078 12.7154 6.32811C13.2684 6.4653 13.8591 6.47315 14.3692 6.75537C14.9196 6.91129 15.4163 7.1963 15.8916 7.51371C16.9949 8.19637 17.8407 9.22883 18.4798 10.3418C18.7911 10.7933 18.9335 11.3312 19.1992 11.8068C19.5322 12.8714 19.8919 13.9576 19.8758 15.0867C19.8785 15.8423 19.9161 16.6085 19.7388 17.3478C19.6234 17.8692 19.3872 18.3476 19.218 18.8506C19.1481 18.8989 19.0784 18.9445 19.0086 18.9903C18.9871 19.0493 18.9468 19.1622 18.9254 19.2189C18.6811 19.4203 18.4206 19.6033 18.1441 19.7593C17.9133 19.778 17.6823 19.7995 17.4568 19.8344C17.1588 19.7861 16.8446 19.8048 16.5681 19.6757C16.3076 19.5628 16.0955 19.3692 15.8593 19.2161C15.8218 19.1004 15.7815 18.985 15.7438 18.8665C16.1815 18.966 16.6083 19.173 17.0674 19.1166C17.5534 19.0521 18.0662 18.8478 18.3186 18.4015C18.7402 17.8586 18.8637 17.1648 18.963 16.5037C19.0489 15.7777 18.8529 15.0303 18.4395 14.4334C18.3079 14.2454 18.23 14.0274 18.171 13.8072C18.1173 13.8232 18.0045 13.8556 17.9508 13.869C17.932 13.9226 17.8971 14.0302 17.881 14.0813C17.5695 14.4041 17.2742 14.7427 16.9251 15.0196C16.5493 15.3287 16.1009 15.5168 15.6901 15.7643C15.3679 15.9686 14.976 15.9929 14.6296 16.1326C14.0068 16.3126 13.3275 16.3827 12.7073 16.1432C12.1032 15.9068 11.6038 15.2938 11.7139 14.6136C11.6655 14.318 11.8857 14.1163 12.0549 13.912C12.428 13.7371 12.8953 13.7346 13.2282 13.9981C13.6631 14.2264 14.0792 14.6136 14.6054 14.5329C15.0082 14.5167 15.3223 14.2319 15.6741 14.0651C15.9425 13.7346 16.2701 13.4199 16.3399 12.979C16.3909 12.5356 16.407 12.0731 16.2593 11.6428C16.1896 11.5433 16.1224 11.4413 16.058 11.3365C15.7868 11.1295 15.529 10.9009 15.2042 10.7827C14.7611 10.6134 14.2699 10.3929 14.0873 9.91706C13.9853 9.42778 13.9396 8.92231 13.757 8.45455C13.4618 7.82808 13.0053 7.24212 12.3502 6.97052C11.969 6.83612 11.5448 6.89256 11.1743 6.72601C11.134 6.73132 11.0937 6.73664 11.0534 6.74474C11.4991 6.97052 11.8615 7.35222 12.1515 7.75822C12.3609 8.2394 12.3449 8.796 12.2723 9.30932C12.1784 9.93047 11.6817 10.401 11.1286 10.6483C10.6184 10.7182 10.0842 10.8364 9.58745 10.6321C10.0976 10.3739 10.5621 9.90086 10.5594 9.29616C10.5943 8.97065 10.4413 8.6778 10.2909 8.40342C10.2292 8.34166 10.1701 8.2799 10.1083 8.22067C9.90699 8.12398 9.71642 7.95996 9.48012 7.9759C9.26803 7.984 9.05324 7.98679 8.85192 7.90883C8.62361 7.93566 8.39542 7.97059 8.16988 8.01109L8.31761 8.12398C8.77935 8.10778 9.24116 8.08348 9.7029 8.11866C9.81576 8.20978 9.92851 8.30141 10.044 8.39279C10.0332 8.43582 10.0171 8.52441 10.0063 8.56744C9.09887 8.65071 8.25312 9.05418 7.52015 9.58092C7.18996 9.89276 6.85166 10.2046 6.56164 10.5595C6.3603 10.7989 6.26363 11.1108 6.02743 11.3257C6.01135 11.3821 5.97639 11.4978 5.96029 11.5542C5.75895 11.9736 5.75619 12.4495 5.74284 12.9066C5.73743 13.3744 5.7159 13.8556 5.87973 14.3043C6.09459 14.8744 6.45431 15.3717 6.83022 15.8448C7.67053 16.6029 8.55925 17.3126 9.53651 17.8854C9.67079 17.9687 9.80232 18.0601 9.92575 18.1543C9.97947 18.173 10.0842 18.2135 10.1379 18.2322C10.1325 18.2859 10.1191 18.3934 10.1138 18.4471C10.0332 18.4929 9.95538 18.5385 9.87479 18.5843C9.83184 18.6678 9.78879 18.7508 9.74316 18.8344C9.09887 19.1113 8.36056 19.0898 7.70807 18.8559C7.40748 18.7025 7.10672 18.5413 6.82479 18.3557C6.2744 17.9176 5.6999 17.4982 5.22464 16.974C5.10388 16.8342 4.9535 16.7295 4.80587 16.6244C4.47558 15.7428 4.47558 14.7802 4.55615 13.8556C4.58835 13.3663 4.76558 12.9038 4.82996 12.4171C4.91055 12.229 4.98568 12.0382 5.06892 11.8526C5.08237 11.8096 5.10656 11.721 5.1172 11.678C5.38836 10.9789 5.75096 10.3122 6.21002 9.71811C6.61811 9.019 7.36987 8.6535 8.04369 8.26648C8.08664 8.21788 8.17256 8.12119 8.21561 8.07285C7.89063 8.11309 7.60074 8.26901 7.31337 8.41683C7.1551 8.56212 6.96976 8.6697 6.77651 8.7636C6.53755 8.99774 6.25031 9.18049 6.04353 9.44651C5.37226 10.3446 4.83264 11.3527 4.53739 12.4361C4.09967 13.5409 4.11041 14.7668 4.21241 15.9309C4.24737 16.5411 4.54806 17.0815 4.77625 17.6326C5.33475 18.6838 6.05696 19.6785 7.04489 20.364C7.84503 20.9851 8.76056 21.4286 9.68414 21.8237C10.0816 21.9368 10.4547 22.1143 10.8252 22.297C11.3998 22.4502 11.9555 22.6759 12.5275 22.8455C12.906 22.9744 13.2819 23.1197 13.6739 23.211C14.1141 23.3723 14.5303 23.598 14.9894 23.7056C16.4581 24.2756 17.9025 24.9935 19.0623 26.0796C19.1965 26.2003 19.3201 26.3322 19.4328 26.4694C19.994 27.0716 20.4396 27.7704 20.794 28.5098C20.9605 29.0555 21.2155 29.5797 21.2639 30.1578C21.3391 31.0396 21.331 31.9294 21.2799 32.8139C21.2343 33.4779 20.9605 34.0908 20.7834 34.7226C20.3537 35.6259 19.7952 36.4754 19.0542 37.153C18.7697 37.411 18.4448 37.6206 18.1494 37.8653C17.3172 38.4057 16.3936 38.8062 15.4271 39.0266C14.8336 39.0697 14.2564 39.2015 13.6711 39.2955C12.565 39.3949 11.4347 39.3923 10.3554 39.1046C9.75927 39.0347 9.2224 38.7659 8.66125 38.5831C8.37931 38.4594 8.12425 38.282 7.83702 38.1718C7.51216 37.9029 7.14155 37.6959 6.82747 37.4137C5.78582 36.4915 4.9696 35.3087 4.50511 33.994C4.23129 33.4483 4.17758 32.83 4.05404 32.2412C4.02727 31.4186 3.94671 30.5717 4.16681 29.7707C4.35738 28.7948 5.0555 27.897 6.01135 27.5796C6.44622 27.4667 6.89994 27.4264 7.32958 27.577C7.43959 27.6388 7.54978 27.6952 7.66244 27.7542C7.72425 27.8674 7.78598 27.9829 7.84503 28.0985C7.51481 28.0769 7.17651 28.0366 6.84633 28.0985C6.24753 28.3054 5.71067 28.6926 5.35884 29.2222C5.23007 29.5045 5.10921 29.7894 4.99645 30.0745C4.88901 30.4722 4.8971 30.8944 4.95883 31.3003C5.1575 31.8433 5.47171 32.3353 5.80723 32.8058C6.2422 32.3864 6.62878 31.8971 7.17919 31.6202C7.48529 31.4078 7.85044 31.3084 8.17532 31.131C8.5001 30.9535 8.87877 30.9347 9.2224 30.8164C9.80765 30.6497 10.4305 30.5825 11.0293 30.7196C11.365 30.8729 11.7595 30.9616 11.977 31.2869C12.4119 31.6982 12.3207 32.5316 11.7461 32.7709C11.3166 32.8865 10.8413 32.8596 10.4199 32.7198C9.99289 32.5826 9.69488 32.1203 9.20898 32.1901C8.7203 32.158 8.30151 32.4644 7.97397 32.7923C7.74035 32.9913 7.68663 33.3031 7.55776 33.5666C7.49338 34.0452 7.5631 34.5264 7.82893 34.9376C8.36865 35.3032 9.0022 35.486 9.56869 35.8007C9.96336 36.1125 9.84794 36.6798 10.044 37.1018C10.3124 37.7578 10.7554 38.411 11.4589 38.6395C11.8776 38.7121 12.2912 38.8519 12.7234 38.8385C12.4173 38.6261 12.1166 38.4057 11.8428 38.1556C11.5368 37.5615 11.4561 36.798 11.8696 36.2334C12.224 35.8087 12.7234 35.5533 13.1852 35.2683C13.553 35.0909 13.9047 34.8275 14.3316 34.8328C13.9343 35.1232 13.6308 35.548 13.5235 36.0318C13.4778 36.4593 13.6658 36.8895 13.9343 37.212C14.3343 37.6099 14.9357 37.6314 15.4646 37.6099C16.5707 37.575 17.6904 37.0668 18.3239 36.1366C18.3884 36.0856 18.4529 36.0372 18.5173 35.9888C18.6972 35.7388 18.8959 35.5023 19.0382 35.2253C19.0758 35.1984 19.1509 35.1446 19.1912 35.1151C19.4086 34.6016 19.7738 34.1607 19.9509 33.6231C20.4771 32.4268 20.5013 31.0449 20.2033 29.7868C20.0771 29.4399 19.9806 29.0824 19.8355 28.7437C19.669 28.3216 19.3898 27.9587 19.1831 27.5581C18.9119 27.2999 18.6944 26.9883 18.4179 26.7326C17.505 25.8807 16.4231 25.2193 15.274 24.7353C14.933 24.5338 14.5545 24.4207 14.1812 24.2972C13.7732 24.1007 13.3356 23.9853 12.9194 23.8132C12.5811 23.676 12.2106 23.6492 11.8804 23.4986C11.569 23.3644 11.2547 23.2325 10.9246 23.1574C8.88145 22.4608 6.79794 21.563 5.34008 19.9071C4.84607 19.294 4.3548 18.6569 4.08622 17.9095C3.37744 16.4444 3.35069 14.7587 3.56002 13.1727C3.69165 12.5652 3.8527 11.9574 4.09165 11.3796C4.395 10.5704 4.8675 9.8391 5.36693 9.13999C5.61122 8.91142 5.8341 8.65881 6.04088 8.39531C6.38717 8.14802 6.67451 7.82555 7.04234 7.60787C7.55776 7.30387 8.04635 6.93306 8.63981 6.78777ZM12.2885 7.15074C12.6804 7.2368 12.9569 7.55395 13.22 7.8334C13.3973 8.14271 13.5235 8.47884 13.6765 8.80132C13.3436 8.74487 13.0107 8.68311 12.6859 8.58085C12.6965 8.07006 12.5623 7.58079 12.2885 7.15074ZM5.40189 8.2313C5.62477 8.11309 5.84487 7.99489 6.07038 7.87921C5.76428 8.22877 5.42065 8.54871 5.15484 8.93319C4.54272 9.64015 4.15604 10.503 3.78556 11.3527C3.73728 11.5221 3.68621 11.6886 3.63518 11.858C3.45001 12.5113 3.23249 13.1673 3.22448 13.8528C3.1922 14.7724 3.16811 15.7132 3.42306 16.6085C3.55469 17.0089 3.64592 17.4202 3.82052 17.8047C3.9708 18.1758 4.20177 18.5063 4.32786 18.888C4.18556 18.9123 4.04327 18.9339 3.90108 18.9554C3.92252 19.1596 3.94393 19.3639 3.96013 19.5709C3.68356 19.3745 3.51174 19.0791 3.28886 18.8318C2.83782 18.0788 2.37873 17.2967 2.2095 16.4229C1.98406 15.4955 2.00016 14.5167 2.08073 13.5678C2.10759 13.0704 2.29284 12.6029 2.37598 12.1134C2.666 11.6079 2.84323 11.0406 3.18143 10.5623C3.40163 10.1833 3.73728 9.89023 3.95738 9.51106C4.02985 9.4655 4.10508 9.41968 4.18023 9.37665C4.22318 9.30148 4.26881 9.22605 4.31175 9.15087C4.66616 8.83372 5.08237 8.58617 5.40189 8.2313ZM18.9307 10.0621C19.0194 10.0945 19.1106 10.1294 19.202 10.1644C19.5322 10.5623 20.0209 10.7746 20.4289 11.0784C20.9283 11.3122 21.4089 11.5945 21.9539 11.7129C22.7003 12.0192 23.5192 12.065 24.3165 12.0999C24.3218 12.1483 24.3354 12.2452 24.3407 12.2961C23.9379 12.5437 23.4815 12.6725 23.0412 12.834C22.5767 12.8768 22.1096 12.858 21.6639 12.7102C21.9512 13.0436 22.2948 13.3448 22.4424 13.7748C22.3781 13.8097 22.2519 13.8796 22.1875 13.9145C22.3701 14.3932 22.5983 14.8906 22.421 15.4094C22.2948 15.4094 22.1687 15.4094 22.0425 15.4067C22.2036 15.9552 21.7928 16.4389 21.3686 16.7214C20.9605 17.0332 20.5766 17.3747 20.2355 17.7564C20.3725 16.7426 20.6383 15.7238 20.496 14.6969C20.3751 14.1297 20.3887 13.5384 20.2087 12.9871C20.045 12.4925 19.9134 11.9871 19.6932 11.514C19.4569 11.0194 19.2315 10.5192 18.9307 10.0621ZM5.4797 17.9257C6.17774 18.5413 6.9187 19.13 7.79672 19.4581C8.42494 19.7107 9.19821 19.7537 9.77812 19.3586C10.1003 19.1973 10.3151 18.8934 10.444 18.5656C10.5111 18.3666 10.5486 18.1623 10.5809 17.9578C11.2708 18.2026 11.867 18.7053 12.1972 19.3586C12.3449 19.7995 12.3476 20.2835 12.2214 20.7297C11.9958 20.9474 11.7676 21.1598 11.534 21.3668C11.389 21.4529 11.2521 21.5496 11.1313 21.6706C11.8615 21.5174 12.5892 21.3481 13.3221 21.1975C14.1248 21.1114 14.9465 21.1302 15.7331 21.3291C17.2286 21.6974 18.528 22.6706 19.4382 23.8992C20.0315 24.6386 20.402 25.5124 20.7779 26.3725C20.8585 26.7544 20.9552 27.1333 21.0222 27.5178C20.641 27.0311 20.3215 26.4909 19.857 26.0687C18.7911 24.996 17.4433 24.2513 16.0526 23.6869C15.4969 23.5256 15.0001 23.2029 14.431 23.0685C13.5235 22.7056 12.5757 22.4555 11.671 22.0925C9.78624 21.4314 7.83426 20.6839 6.3926 19.2404C6.07571 18.8746 5.75895 18.5144 5.49046 18.1112C5.48781 18.0654 5.48238 17.974 5.4797 17.9257ZM4.31175 19.2806C4.46214 19.5279 4.55883 19.8048 4.68492 20.0658C4.8515 20.4232 5.15484 20.6892 5.36159 21.0226C5.90657 21.5065 6.50527 21.9206 7.13357 22.2861C7.69197 22.5684 8.26923 22.8103 8.83847 23.0657C9.20087 23.1708 9.55259 23.2996 9.89623 23.4558C10.2481 23.6223 10.6426 23.6626 10.9998 23.8185C11.0481 23.8347 11.1474 23.8671 11.1957 23.8831C11.6494 24.058 12.1354 24.1197 12.5757 24.3268C13.3114 24.4746 13.9746 24.8429 14.7049 25.0203C14.8606 25.0955 15.0162 25.1681 15.1719 25.2461C15.3331 25.2998 15.4941 25.3509 15.6553 25.3992C16.7989 25.9639 18.0287 26.5071 18.8206 27.5553C19.132 28.0608 19.3388 28.6657 19.2207 29.2625C19.0623 29.8324 18.6327 30.3756 18.0287 30.4804C17.6098 30.5018 17.1372 30.5609 16.7775 30.2975C16.3372 30.0422 16.0258 29.5475 16.0955 29.0259C16.0795 28.6523 16.3452 28.3834 16.5466 28.1038C16.6218 28.093 16.7721 28.0716 16.8473 28.0608L16.8956 28.0662C16.8742 28.1065 16.8312 28.1872 16.8097 28.2275L16.7614 28.3162C16.705 28.3378 16.5896 28.3781 16.5304 28.3996C16.3076 28.7034 16.3372 29.0851 16.3586 29.4399C16.5896 29.6873 16.8044 29.9885 17.14 30.0878C17.3843 30.1362 17.6366 30.1308 17.8837 30.104C18.1682 30.0664 18.3455 29.819 18.5602 29.6523C18.9549 28.9587 18.6408 28.1254 18.1548 27.5689C17.8407 27.3376 17.5373 27.0931 17.2151 26.8752C16.6003 26.4854 15.9344 26.1925 15.2659 25.9128C14.6538 25.7057 14.0738 25.4073 13.4457 25.2489C13.1476 25.1223 12.8389 25.0256 12.5327 24.9287C12.1784 24.8267 11.832 24.7057 11.4965 24.5525C9.86137 24.0499 8.24769 23.4234 6.77375 22.5362C6.26363 22.2163 5.81534 21.805 5.36693 21.4071C5.0152 20.977 4.68767 20.5255 4.47025 20.0093C4.44871 19.9688 4.40576 19.8853 4.38433 19.8451C4.32252 19.6623 4.30377 19.4715 4.31175 19.2806ZM12.6617 19.735C13.1207 19.9688 13.5772 20.2055 14.0417 20.4313C14.0336 20.4796 14.0175 20.571 14.0094 20.6194C13.7034 20.6168 13.4 20.6221 13.0939 20.649C12.8522 20.7538 12.5892 20.7619 12.3314 20.77C12.5327 20.4581 12.6429 20.106 12.6617 19.735ZM4.20442 20.4905C4.91854 21.5523 5.818 22.5228 6.94299 23.1546C7.98998 23.7998 9.1606 24.2083 10.334 24.5498C11.0051 24.8482 11.7461 24.9504 12.4173 25.2489C13.1476 25.4397 13.7973 25.8402 14.3772 26.3135C14.3961 26.3671 14.4364 26.4747 14.4551 26.5284C14.525 26.5767 14.5947 26.6253 14.6672 26.6737C14.8256 27.2141 14.9545 27.8162 14.6968 28.3458C14.6028 28.4749 14.4847 28.5851 14.3772 28.7034C14.1867 28.7813 13.9986 28.8619 13.8188 28.9587C13.5744 28.9721 13.3302 28.9695 13.0885 28.9587C12.7932 28.7894 12.4549 28.6442 12.2912 28.3242C12.1461 27.9238 12.1595 27.4639 12.4039 27.1037C12.4791 27.1252 12.624 27.1657 12.6992 27.1845C12.6429 27.2303 12.5301 27.3216 12.4737 27.3672C12.275 27.7059 12.5114 28.0339 12.6589 28.3404C12.8953 28.4372 13.1315 28.5528 13.3865 28.5905C13.6603 28.5447 13.9101 28.4184 14.1625 28.3054C14.192 28.2463 14.2511 28.1281 14.2807 28.0689C14.3021 27.6494 14.3611 27.1657 14.0417 26.8349C13.4457 26.1305 12.4898 25.9424 11.671 25.6199C11.2655 25.4693 10.8521 25.3509 10.4359 25.238C10.0466 25.0714 9.63318 24.9664 9.23307 24.8239C8.34713 24.4343 7.43701 24.0767 6.64498 23.5095C6.19116 23.1574 5.72942 22.8078 5.34817 22.375C5.06083 21.9852 4.70643 21.6384 4.51585 21.1841C4.4568 21.1276 4.39768 21.0737 4.33863 21.02C4.293 20.8426 4.24737 20.6677 4.20442 20.4905ZM20.6759 24.9208C20.845 25.136 21.0035 25.359 21.1698 25.5767C21.2719 25.765 21.3794 25.9505 21.4867 26.136C21.7444 26.4264 21.8197 26.8187 21.9942 27.1576C22.5177 28.3001 22.6063 29.5851 22.5338 30.8244C22.4613 32.2869 21.9056 33.6983 21.0652 34.8866C21.1189 34.3543 21.4196 33.8892 21.5323 33.3703C21.8223 32.5557 21.7955 31.6713 21.7552 30.8191C21.7364 30.397 21.6907 29.9722 21.535 29.577C21.4222 29.2786 21.3336 28.9749 21.2746 28.663C21.3391 28.7302 21.4653 28.87 21.5297 28.9399C21.484 28.2033 21.323 27.4748 21.2209 26.7435C21.1377 26.1064 20.7484 25.5579 20.6759 24.9208ZM14.6565 26.1495C15.1183 26.2274 15.4995 26.5124 15.9399 26.6494C16.3264 26.8081 16.6647 27.0582 17.0326 27.2543C17.4514 27.4854 17.7763 27.8459 18.171 28.1118C18.2488 28.3323 18.3025 28.5582 18.3105 28.7921C18.2596 28.6898 18.2113 28.5905 18.1602 28.4883C18.0528 28.3753 17.9534 28.2571 17.8595 28.1307C17.7655 28.0581 17.6716 27.9829 17.5722 27.9157C17.2339 27.7542 16.8553 27.8162 16.4983 27.8459C16.0365 27.2946 15.3492 27.0123 14.8203 26.5337C14.7666 26.4049 14.7129 26.2783 14.6565 26.1495ZM2.88342 30.1712C3.20296 29.9454 3.44458 29.6308 3.7668 29.4077C3.33459 30.8272 3.40431 32.3703 3.79365 33.7924C3.8527 33.9349 3.90108 34.0827 3.94671 34.2307C4.09967 34.5291 4.19633 34.8489 4.33329 35.1554C4.51044 35.4754 4.72796 35.7791 4.84339 36.1313C4.71186 36.0453 4.58835 35.9485 4.47824 35.8356C3.59498 35.1366 2.54522 34.6931 1.45776 34.4268C0.982601 34.2898 0.485821 34.3194 0 34.2602C0.20134 33.9564 0.563729 33.8811 0.888598 33.7897C1.35576 33.6419 1.84987 33.7199 2.3277 33.7199C2.1935 33.5075 2.03768 33.3059 1.83911 33.1472C1.72091 32.9456 1.79882 32.7681 1.9653 32.6311C1.69139 32.2789 1.66986 31.8057 1.79882 31.3917C1.8713 31.3998 2.02169 31.4159 2.09683 31.424C2.11559 31.2143 2.08073 30.9857 2.19617 30.8002C2.3438 30.518 2.63647 30.3593 2.88342 30.1712ZM19.2476 30.9105C19.4301 30.6202 19.6154 30.3271 19.704 29.991C19.7738 30.0098 19.9106 30.0529 19.9778 30.0745C20.0799 31.2895 19.9564 32.5396 19.5241 33.6849C19.508 33.7279 19.4785 33.8112 19.4624 33.8516C19.1751 34.5747 18.673 35.2092 18.0098 35.6205C17.6984 35.7522 17.3629 35.8115 17.0326 35.8839C17.4272 35.5345 17.889 35.2388 18.179 34.7871C18.3938 34.2871 18.3803 33.7252 18.3133 33.1956C18.0931 33.2224 17.8541 33.2843 17.6447 33.1741C17.0944 32.8058 16.7694 32.0853 16.9493 31.432C17.0594 31.2439 17.3011 31.3541 17.4648 31.389C17.8407 31.5154 18.2461 31.4562 18.6166 31.3352C18.8582 31.2439 19.0301 31.0422 19.2476 30.9105ZM1.52224 35.548C1.80682 35.4673 2.09407 35.392 2.39208 35.3947C2.91573 35.3571 3.37478 35.6501 3.85535 35.806C4.11319 36.0292 4.42197 36.1743 4.68234 36.3894C5.19511 36.798 5.67571 37.2523 6.22877 37.6099C6.9027 38.1691 7.67321 38.5912 8.45181 38.9783C9.30564 39.3305 10.1781 39.6746 11.1071 39.7471C11.7408 39.7767 12.3797 39.7767 13.0107 39.6988C13.0832 39.6611 13.1557 39.6209 13.2308 39.5832C13.2603 39.6101 13.3195 39.6611 13.349 39.6881C12.5059 40.1989 11.4857 40.1342 10.538 40.1074C10.0868 40.0697 9.66002 39.9165 9.21431 39.8466C8.40351 39.551 7.58196 39.2526 6.84898 38.7847C6.70403 38.6907 6.55097 38.6126 6.39526 38.5401C6.34953 38.4755 6.30668 38.411 6.26105 38.3466C5.87973 38.2175 5.54952 37.9406 5.13609 37.9056C4.74139 37.8358 4.33863 37.8626 3.95204 37.9728C3.55469 38.4165 3.52782 39.1745 3.96271 39.6046C4.22318 39.6046 4.48092 39.6046 4.74139 39.5993C4.79778 39.2875 4.49434 39.1558 4.29034 38.9945C4.29575 38.9245 4.3091 38.7875 4.31719 38.7174C4.56148 38.4944 4.83264 38.2659 5.19246 38.3358C5.33199 38.4621 5.4797 38.5831 5.63 38.6987C5.66494 38.9702 5.6999 39.2955 5.47704 39.5025C5.07703 39.9972 4.36282 40.0429 3.79365 39.8628C3.21907 39.5697 2.65255 39.0241 2.76266 38.3142C2.73847 37.6986 3.27544 37.2927 3.76945 37.0454C4.07823 36.9755 4.38966 36.9378 4.70377 36.9217C4.51044 36.8088 4.31719 36.6959 4.14527 36.5561C3.67823 36.4083 3.254 36.134 2.75723 36.0883C2.33568 36.0238 1.90349 36.056 1.49271 36.1743C1.39338 36.2738 1.29404 36.3732 1.19204 36.4727C1.2028 36.6125 1.21623 36.7577 1.22956 36.9002C1.49805 37.0964 1.79605 37.255 2.05921 37.4621C2.38675 37.7524 2.27941 38.2524 2.0834 38.5857C1.76396 38.7121 1.42023 38.8197 1.07661 38.7174C0.467059 38.653 0.00799963 38.0642 0.0214276 37.4621C-0.0215261 36.9889 0.209338 36.5587 0.459061 36.1743C0.617446 36.0803 0.757072 35.9646 0.869837 35.8195C1.08727 35.7254 1.30747 35.642 1.52224 35.548ZM10.1701 36.5534C10.4144 36.6879 10.6748 36.7872 10.9514 36.833C11.0481 37.0991 11.0642 37.3814 11.0857 37.661C11.1877 37.8707 11.2602 38.0939 11.3273 38.3197C11.2037 38.2739 11.0803 38.2282 10.9567 38.1826C10.5782 37.7121 10.1539 37.1932 10.1701 36.5534ZM12.4039 27.1037C12.7019 26.8941 13.22 26.8832 13.3436 27.2946C13.1262 27.2677 12.9114 27.2356 12.6992 27.1845C12.624 27.1657 12.4791 27.1252 12.4039 27.1037ZM16.4983 27.8459C16.8553 27.8162 17.2339 27.7542 17.5722 27.9157C17.5186 27.9291 17.4165 27.9534 17.3655 27.9667C17.4783 28.0769 17.5803 28.1979 17.6609 28.335C17.3816 28.2651 17.097 28.2086 16.8097 28.2275C16.8312 28.1872 16.8742 28.1065 16.8956 28.0662L16.8473 28.0608C16.7238 27.9963 16.611 27.9238 16.4983 27.8459ZM136.615 5.54041C141.41 5.55104 146.206 5.53762 151.001 5.54572C151.395 5.55104 151.779 5.67203 152.179 5.65077C152.214 5.67734 152.281 5.73379 152.316 5.76087C152.62 5.7796 152.915 5.86035 153.202 5.96235C153.932 6.19345 154.687 6.43011 155.307 6.90344C155.361 6.91129 155.474 6.92496 155.527 6.93306C155.57 7.01887 155.613 7.10492 155.661 7.19098C155.715 7.2044 155.828 7.2287 155.884 7.23958C156.322 7.69368 156.864 8.04045 157.227 8.56744C157.544 8.79069 157.699 9.15087 157.917 9.46018C158.177 9.84973 158.352 10.2853 158.572 10.6994C158.741 11.0004 158.695 11.3821 158.894 11.6699C158.902 11.7694 158.91 11.8688 158.924 11.9708C159.087 12.2156 159.036 12.5247 159.087 12.8016C159.195 13.4308 159.128 14.0705 159.149 14.705C159.176 15.248 159.026 15.7777 159.039 16.3207C159.004 16.3584 158.937 16.431 158.902 16.4687C158.902 16.5895 158.907 16.7079 158.913 16.8289C158.883 16.8611 158.822 16.9256 158.789 16.9605C158.714 17.7751 158.266 18.4876 157.954 19.2295C157.893 19.2753 157.836 19.3237 157.78 19.372C157.694 19.6221 157.586 19.8747 157.388 20.0602C156.918 20.7188 156.392 21.3372 155.772 21.8614C155.552 22.0173 155.342 22.1894 155.149 22.3778C154.843 22.5066 154.598 22.7514 154.279 22.8508C154.139 22.9288 154.002 23.004 153.865 23.0819C153.661 23.1356 153.46 23.2085 153.267 23.2915C153.014 23.3697 152.765 23.453 152.507 23.5014C152.064 23.6869 151.57 23.5899 151.105 23.6545C151.699 24.0714 152.297 24.4961 152.786 25.039C153.248 25.4207 153.541 25.9611 153.992 26.3537C154.155 26.5555 154.26 26.8028 154.459 26.9802C154.606 27.206 154.762 27.429 154.923 27.6494C155.326 28.1334 155.61 28.7114 156.037 29.1819C156.185 29.4454 156.354 29.7034 156.572 29.9185C156.62 30.0153 156.671 30.1121 156.722 30.2089C157.028 30.4857 157.197 30.8729 157.468 31.1793C157.592 31.3164 157.705 31.4644 157.777 31.639C158.03 31.8246 158.169 32.1149 158.365 32.3541C158.642 32.7144 158.94 33.0639 159.173 33.4564C159.251 33.5021 159.329 33.5505 159.41 33.5989C159.423 33.6526 159.452 33.7601 159.469 33.8112C159.659 33.9995 159.845 34.1984 160.057 34.3705C160.655 35.0613 161.257 35.7496 161.941 36.3626C162.299 36.5265 162.503 36.9002 162.865 37.0642C163.141 37.298 163.461 37.4702 163.754 37.6825C163.797 37.6905 163.88 37.704 163.923 37.7121C164.267 37.9218 164.666 38.0078 165.021 38.1987C165.424 38.3197 165.867 38.2606 166.248 38.4459C166.519 38.4594 166.796 38.4594 167.069 38.4567C167.069 38.6288 167.075 38.8009 167.08 38.9756C165.856 38.9863 164.632 38.9729 163.41 38.981C163.179 38.9917 162.951 38.9542 162.747 38.8492C162.586 38.8411 162.43 38.8358 162.274 38.8278C162.105 38.6772 161.872 38.6933 161.668 38.6503C161.163 38.5885 160.736 38.2847 160.239 38.1907C159.93 37.9567 159.557 37.8411 159.219 37.6663C158.639 37.3518 158.081 37.0023 157.597 36.5534C156.953 35.9915 156.365 35.3705 155.836 34.7011C155.186 33.8032 154.523 32.9107 153.881 32.0074C153.728 31.7842 153.567 31.5665 153.414 31.3433C153.025 30.8487 152.705 30.2949 152.303 29.8082C152.222 29.6926 152.144 29.5744 152.072 29.4561C152.013 29.2974 151.911 29.1685 151.776 29.0717C151.728 28.9749 151.68 28.8781 151.634 28.784C151.277 28.4587 151.124 27.9775 150.772 27.6469C150.692 27.5097 150.606 27.3753 150.517 27.2462C149.98 26.5124 149.462 25.765 148.888 25.0606C148.606 24.773 148.321 24.4771 148.117 24.125C147.798 23.8777 147.459 23.6545 147.169 23.3723C146.576 22.9584 145.875 22.6248 145.134 22.719C145.078 22.539 145.046 22.3535 145.03 22.1679C145.977 22.1813 146.938 22.2702 147.873 22.0685C148.257 22.0282 148.646 22.0657 149.033 22.0388C149.137 21.9796 149.25 21.9206 149.379 21.9181C149.838 21.8776 150.308 21.8293 150.735 21.6384C151.049 21.5093 151.401 21.4635 151.693 21.2754C151.841 21.1894 151.999 21.122 152.158 21.0497C152.475 20.9125 152.695 20.6194 153.028 20.5012C153.095 20.4207 153.167 20.3397 153.24 20.2592C153.785 19.9018 154.083 19.3102 154.486 18.821C154.499 18.7779 154.528 18.6919 154.542 18.6461C154.743 18.2965 154.902 17.9204 155.079 17.5574C155.243 17.2187 155.219 16.8208 155.385 16.4847C155.404 16.2374 155.409 15.9901 155.436 15.7428C155.568 15.4416 155.522 15.1082 155.53 14.7911C155.56 14.1727 155.348 13.5787 155.393 12.9603C155.157 12.53 155.329 11.9736 155.036 11.5651C155.036 11.5087 155.033 11.393 155.033 11.3365C155.001 11.3069 154.942 11.2477 154.91 11.2209C154.781 10.5919 154.373 10.0917 154.104 9.52726C153.965 9.4331 153.863 9.30426 153.804 9.14808C153.613 8.9547 153.425 8.76107 153.216 8.59173C152.928 8.19383 152.467 7.98932 152.056 7.74759C151.36 7.33627 150.542 7.25021 149.771 7.06999C147.717 7.05658 145.661 7.07278 143.607 7.0619C143.58 16.4042 143.604 25.7462 143.596 35.0909C143.612 35.6904 143.534 36.3437 143.883 36.8734C144.087 37.3035 144.509 37.5562 144.796 37.9218C144.85 37.9378 144.96 37.9675 145.013 37.9836C145.059 38.0508 145.105 38.1206 145.156 38.1907C145.465 38.2606 145.789 38.3035 146.079 38.4459C146.453 38.4648 146.828 38.4594 147.204 38.4514C147.207 38.6261 147.212 38.8036 147.218 38.9783C143.679 38.9783 140.143 38.9783 136.605 38.9783C136.605 38.8062 136.605 38.6314 136.607 38.4594C136.954 38.4514 137.303 38.4729 137.649 38.4514C138.197 38.3222 138.811 38.2121 139.177 37.739C139.225 37.7228 139.316 37.6933 139.364 37.6771C139.606 37.3734 139.84 37.0615 140.076 36.7523C140.167 36.2603 140.39 35.7871 140.35 35.2763C140.334 26.4264 140.363 17.5733 140.336 8.72336C140.149 8.42772 140.213 8.04576 140.028 7.75012C139.842 7.45195 139.628 7.17757 139.402 6.91129C139.244 6.83358 139.12 6.70981 139.029 6.56199C138.685 6.44353 138.409 6.18029 138.046 6.12638C137.571 6.0269 137.085 6.08335 136.607 6.0674C136.607 5.8925 136.61 5.71506 136.615 5.54041ZM46.01 5.65077C46.1576 5.6452 46.3027 5.64267 46.4503 5.63988C46.488 5.67481 46.5578 5.74746 46.5927 5.78492C47.1511 7.18567 47.7633 8.56744 48.3538 9.95452C48.5204 10.4896 48.8452 10.9629 48.9795 11.5112C49.2211 11.9493 49.417 12.4118 49.5593 12.893C49.6132 12.9709 49.6668 13.0489 49.7232 13.1268C49.9863 13.8313 50.2816 14.5195 50.569 15.213C50.7998 15.5598 50.8319 15.9901 51.0495 16.3422C51.3127 16.853 51.4684 17.4149 51.7315 17.9257C51.8253 18.1219 51.8926 18.3317 51.9623 18.5385C52.0134 18.6301 52.0589 18.7268 52.1019 18.8237C52.1233 18.8584 52.1638 18.9258 52.1853 18.9607C52.365 19.4178 52.5182 19.8934 52.7599 20.3265C52.8885 20.5844 52.9424 20.8748 53.0794 21.1301C53.2351 21.4903 53.4335 21.8346 53.5167 22.2218C53.5895 22.3641 53.6646 22.5041 53.7505 22.6385C54 23.2568 54.2258 23.8884 54.5238 24.4799C54.5291 24.5255 54.5397 24.6171 54.545 24.6627C54.6337 24.8052 54.7169 24.9532 54.7973 25.1011C54.8405 25.257 54.8888 25.4073 54.9371 25.5632C55.0445 25.7678 55.1358 25.9827 55.2351 26.1925C55.4204 26.6575 55.5976 27.1227 55.8284 27.5689C55.9144 27.8403 56.038 28.0985 56.1239 28.37C56.1535 28.3996 56.2071 28.4614 56.2367 28.4909C56.242 28.5339 56.2526 28.6254 56.2581 28.6684C56.4273 28.8915 56.4649 29.1792 56.5911 29.4266C56.7521 29.7491 56.8891 30.0852 57.0286 30.4212C57.1037 30.6067 57.1682 30.7949 57.2569 30.9777C57.4341 31.2412 57.4743 31.5692 57.6328 31.846C57.8717 32.5288 58.2342 33.1633 58.4488 33.8544C58.5051 33.9618 58.5562 34.072 58.602 34.1876C58.8408 34.5424 58.9025 34.9779 59.1012 35.3543C59.2438 35.634 59.3591 35.927 59.5416 36.1851C59.563 36.2308 59.6032 36.3222 59.6247 36.3679C59.8664 36.5561 59.9389 36.884 60.1968 37.0587C60.7954 37.6475 61.5042 38.1933 62.3525 38.3385C62.8038 38.5105 63.2868 38.4514 63.7567 38.4594C63.7623 38.6314 63.7676 38.8062 63.7729 38.9783C60.1725 38.9729 56.5749 38.9917 52.9745 38.9702C52.9879 38.8009 53.004 38.6342 53.023 38.4648C53.3476 38.4594 53.6724 38.4594 53.9975 38.4459C54.1423 38.3734 54.2874 38.3089 54.4351 38.2443C54.4861 38.2362 54.588 38.2175 54.6391 38.2094C54.8645 37.9272 55.1171 37.6638 55.2968 37.3518C55.5412 36.7523 55.4525 36.0614 55.2164 35.4754C55.2083 35.4296 55.1896 35.3382 55.1788 35.2926C55.0928 35.134 55.0203 34.9699 54.9452 34.8059C54.8405 34.4591 54.7331 34.1096 54.5506 33.7951C54.5478 33.7521 54.5397 33.6634 54.5344 33.6176C54.5048 33.5881 54.4431 33.5289 54.411 33.4994C54.3678 33.2468 54.3117 32.9967 54.1962 32.7655C54.0056 32.4456 53.9598 32.0692 53.8203 31.7251C53.702 31.5046 53.616 31.2708 53.5142 31.0449C53.4659 30.8756 53.4148 30.7089 53.3691 30.5395C53.2644 30.311 53.1732 30.0745 53.0685 29.8459C52.9558 29.5825 52.8966 29.3002 52.7677 29.0448C52.7222 28.9318 52.6764 28.8216 52.6335 28.7087C52.588 28.5851 52.5341 28.4668 52.4697 28.3539C52.459 28.3028 52.4376 28.1979 52.4267 28.1468C52.3865 28.0098 52.3544 27.8699 52.3248 27.7302C51.9113 27.6737 51.4924 27.6952 51.0763 27.6925C47.2155 27.6925 43.3547 27.6952 39.4965 27.6925C39.4482 27.8646 39.3974 28.0339 39.3516 28.206C39.2576 28.3996 39.1664 28.5958 39.0723 28.7894C38.9032 29.12 38.8655 29.5045 38.6805 29.8298C38.4012 30.3782 38.2803 30.9911 37.9798 31.5288C37.8213 31.9993 37.6737 32.4725 37.4211 32.9026C37.3435 33.2118 37.2199 33.5075 37.1125 33.8086C36.8951 34.1392 36.8253 34.5317 36.6721 34.8892C36.5649 35.1178 36.4762 35.3517 36.3769 35.5802C36.2103 36.0318 36.2426 36.5184 36.2507 36.9889C36.2399 37.239 36.3716 37.4621 36.5192 37.6502C36.7126 37.8922 36.9004 38.1556 37.1876 38.2873C37.6279 38.4702 38.0978 38.4863 38.565 38.4514C38.5703 38.6261 38.5731 38.8036 38.5784 38.9783C35.394 38.9729 32.21 38.9917 29.0284 38.9702C29.0418 38.7981 29.058 38.6288 29.0767 38.4567C29.4205 38.4567 29.764 38.4648 30.1076 38.4459C30.4756 38.2578 30.9241 38.2873 31.2676 38.0374C31.7481 37.8061 32.1402 37.4486 32.5457 37.1099C32.9188 36.6798 33.2732 36.2362 33.531 35.7254C33.6597 35.5156 33.7456 35.2818 33.8182 35.048C33.8746 34.9323 33.9309 34.8167 33.9901 34.7011C34.1458 34.2602 34.366 33.8436 34.5323 33.4052C34.5432 33.3677 34.5619 33.2951 34.57 33.2574C34.6559 33.1204 34.731 32.9805 34.8035 32.838C34.9191 32.4617 35.0801 32.1014 35.2439 31.7465C35.3887 31.4965 35.4345 31.2035 35.5687 30.9481C35.7755 30.6336 35.7995 30.2358 36.0091 29.9238C36.2533 29.4266 36.4037 28.8889 36.6749 28.4077C36.8064 28.1603 36.8306 27.8699 36.9782 27.6307C36.9944 27.6011 37.0265 27.5365 37.0427 27.5069C37.1178 27.3482 37.1876 27.1898 37.2654 27.0339C37.3728 26.7167 37.4965 26.4049 37.6494 26.109C37.8238 25.7622 37.9072 25.378 38.0897 25.0309C38.2697 24.6951 38.3744 24.324 38.5516 23.9853C38.565 23.9289 38.5918 23.8213 38.6052 23.7648C38.8281 23.512 38.8792 23.1733 38.9972 22.8668C39.4267 22.0523 39.6899 21.1625 40.1006 20.3371C40.3423 19.837 40.4793 19.2887 40.7774 18.8101C40.788 18.7698 40.8067 18.6891 40.8175 18.6488C40.8577 18.536 40.8954 18.4231 40.9358 18.3102C41.2043 17.829 41.3706 17.302 41.5936 16.7993C41.8484 16.3235 41.9826 15.7911 42.2458 15.3181C42.3775 15.0652 42.4285 14.7802 42.5653 14.5276C42.7185 14.1699 42.9197 13.8259 43.0056 13.4415C43.1588 13.162 43.3065 12.8768 43.3762 12.5624C43.4005 12.5275 43.4432 12.4629 43.4675 12.4305C43.6447 12.0167 43.7976 11.5864 44.0072 11.1885C44.0153 11.1401 44.0287 11.0462 44.034 10.9979C44.1227 10.8579 44.2031 10.7129 44.2865 10.5704C44.3292 10.417 44.375 10.2664 44.4233 10.116C44.5279 9.93326 44.622 9.74494 44.716 9.5594C44.9387 9.00027 45.1884 8.45455 45.4273 7.90073C45.4354 7.84707 45.4516 7.73671 45.4597 7.68305C45.5562 7.5003 45.6341 7.30944 45.7173 7.12112C45.7228 7.07278 45.7334 6.97583 45.7362 6.92749C45.9994 6.56452 45.9374 6.07524 46.01 5.65077ZM45.7362 12.0435C45.7281 12.0921 45.7173 12.1888 45.7094 12.2343C45.5107 12.5462 45.4192 12.9066 45.285 13.2453C45.1321 13.6781 44.8636 14.0705 44.8072 14.5357C44.7749 14.5653 44.7132 14.6217 44.6839 14.6514C44.6783 14.6941 44.6702 14.783 44.6675 14.826C44.3859 15.3019 44.2997 15.8582 44.0368 16.3422C43.8406 16.6971 43.8004 17.1137 43.6045 17.4713C43.4407 17.7723 43.3146 18.0922 43.2392 18.4284C43.0807 18.7349 42.9601 19.0574 42.8552 19.3854C42.6646 19.8263 42.4553 20.2592 42.3292 20.7216C42.2566 20.8236 42.2271 20.9421 42.1922 21.0578C42.1143 21.2137 42.039 21.3721 41.9452 21.5199C41.9424 21.5711 41.9318 21.6759 41.929 21.727C41.7705 22.0335 41.6659 22.3641 41.521 22.6734C41.3813 22.9906 41.3009 23.3292 41.1505 23.6439C41.0698 23.7486 41.0377 23.8777 41.0109 24.0068C40.9867 24.0364 40.9384 24.0954 40.9113 24.125C40.8686 24.3025 40.8175 24.4771 40.7665 24.652C40.4712 25.1223 40.3881 25.6923 40.1062 26.1654C41.1371 26.23 42.176 26.1763 43.2099 26.195C46.0072 26.1925 48.8023 26.195 51.5998 26.1925C51.4011 25.3537 50.9663 24.5984 50.7568 23.7676C50.6895 23.6601 50.6521 23.5416 50.6119 23.4259C50.4509 23.125 50.3273 22.8025 50.2441 22.4717C50.1043 22.133 49.962 21.7915 49.868 21.4367C49.7929 21.2727 49.7206 21.1086 49.6372 20.9502C49.6185 20.8613 49.6023 20.7753 49.5861 20.6892C49.4064 20.3802 49.3554 20.02 49.1996 19.7C49.119 19.5897 49.0894 19.4553 49.0679 19.3237C49.0411 19.2968 48.9875 19.2429 48.9608 19.2161C48.9365 19.0979 48.915 18.9822 48.8907 18.8665C48.7378 18.4069 48.4883 17.9874 48.3594 17.5197C48.2519 17.1408 48.0747 16.7884 47.9296 16.4229C47.8356 16.1326 47.715 15.8529 47.6316 15.5598C47.4142 15.2024 47.3687 14.7749 47.1619 14.4147C47.1566 14.3664 47.1458 14.2669 47.1402 14.2183C47.0517 14.1188 47.0062 13.9953 46.9658 13.869C46.8692 13.6457 46.7886 13.4146 46.735 13.1752C46.445 12.6001 46.3108 11.9602 46.0424 11.374C45.9402 11.5972 45.8705 11.8364 45.7362 12.0435ZM111.176 5.65077C111.319 5.64798 111.466 5.64267 111.614 5.63988C111.649 5.67481 111.721 5.74746 111.756 5.78239C111.925 6.26356 112.132 6.72601 112.347 7.18846C112.715 8.08905 113.091 8.98685 113.488 9.87656C113.663 10.4413 113.998 10.9386 114.143 11.5112C114.436 11.9871 114.578 12.53 114.812 13.0329C115.053 13.4174 115.131 13.8743 115.349 14.2694C115.582 14.6835 115.663 15.1594 115.91 15.5651C116.066 16.1622 116.42 16.6783 116.6 17.2671C116.831 17.7214 116.976 18.216 117.22 18.6595C117.223 18.7025 117.231 18.786 117.236 18.8291C117.263 18.8584 117.322 18.9177 117.349 18.9445C117.521 19.4122 117.684 19.8881 117.923 20.3237C118.052 20.5844 118.106 20.872 118.24 21.1301C118.399 21.4878 118.597 21.8346 118.681 22.2218C118.753 22.3641 118.828 22.5041 118.917 22.6385C119.153 23.2568 119.406 23.8671 119.666 24.4746C119.744 24.6923 119.843 24.9021 119.959 25.1036C120.004 25.257 120.052 25.4073 120.101 25.5607C120.208 25.7678 120.299 25.9801 120.399 26.1925C120.447 26.2948 120.49 26.3968 120.533 26.5043C120.627 26.8832 120.845 27.2113 120.995 27.5689C121.078 27.8403 121.202 28.0985 121.29 28.37C121.317 28.4022 121.376 28.4668 121.403 28.499C121.408 28.5394 121.414 28.6254 121.419 28.6657C121.58 28.8835 121.631 29.1577 121.744 29.4022C122.112 30.2008 122.445 31.018 122.783 31.83C122.95 32.1444 123.027 32.4939 123.186 32.8112C123.349 33.1499 123.521 33.4887 123.61 33.8596C123.682 34.002 123.752 34.1446 123.833 34.2871C124.107 34.9269 124.316 35.6017 124.705 36.1851C124.727 36.2308 124.767 36.3222 124.786 36.3679C124.961 36.5023 125.049 36.7067 125.173 36.8814C125.828 37.5319 126.577 38.1771 127.516 38.3358C127.967 38.5105 128.451 38.4514 128.923 38.4621C128.926 38.6342 128.931 38.8062 128.937 38.9783C125.336 38.9729 121.739 38.9917 118.138 38.9702C118.151 38.8009 118.168 38.6342 118.187 38.4648C118.511 38.4594 118.836 38.4594 119.164 38.4459C119.306 38.3734 119.454 38.3089 119.604 38.2443C119.653 38.2362 119.752 38.2175 119.803 38.2094C120.093 37.8277 120.501 37.4889 120.571 36.9863C120.649 36.4782 120.579 35.9458 120.38 35.4727C120.369 35.427 120.353 35.3356 120.342 35.2899C120.254 35.1312 120.181 34.9673 120.106 34.8032C120.004 34.4591 119.897 34.1096 119.717 33.7978C119.711 33.7521 119.704 33.6607 119.698 33.615C119.669 33.5854 119.607 33.5289 119.577 33.4994C119.524 33.2036 119.446 32.908 119.301 32.6417C119.151 32.3541 119.108 32.0235 118.984 31.7251C118.866 31.5046 118.78 31.2708 118.678 31.0449C118.627 30.8756 118.579 30.7062 118.533 30.5368C118.27 29.9885 118.082 29.4103 117.862 28.8458C117.786 28.6818 117.717 28.5151 117.634 28.3565C117.623 28.3028 117.604 28.2006 117.593 28.1495C117.55 28.0125 117.515 27.8699 117.491 27.7302C116.479 27.6469 115.459 27.7168 114.444 27.6925C111.182 27.6925 107.92 27.6952 104.66 27.6925C104.612 27.8646 104.561 28.0366 104.515 28.2086C104.217 28.7194 104.075 29.2948 103.844 29.8324C103.651 30.1926 103.549 30.5878 103.407 30.9643C103.35 31.0825 103.299 31.2008 103.243 31.3191C102.999 31.838 102.888 32.4106 102.588 32.9052C102.456 33.5048 102.112 34.0236 101.943 34.6096C101.753 35.177 101.377 35.7065 101.412 36.3302C101.425 36.7282 101.331 37.1771 101.589 37.5185C101.801 37.8089 102.024 38.118 102.351 38.2873C102.504 38.317 102.657 38.3626 102.792 38.4486C103.103 38.4621 103.417 38.4567 103.729 38.4514C103.734 38.6261 103.737 38.8036 103.742 38.9783C100.56 38.9783 97.3789 38.981 94.2001 38.9783C94.211 38.8036 94.2216 38.6288 94.2378 38.4567C94.6915 38.4621 95.1587 38.4997 95.5937 38.333C96.136 38.2686 96.5791 37.9378 97.0435 37.6851C97.2583 37.4835 97.4729 37.2819 97.7121 37.1099C98.0799 36.6771 98.4396 36.2362 98.6946 35.7254C98.7778 35.5747 98.8504 35.4216 98.9335 35.2711C98.9416 35.2172 98.9603 35.1071 98.9712 35.0506C99.0303 34.935 99.0946 34.8194 99.1565 34.7039C99.2584 34.3005 99.5402 33.9672 99.5941 33.5477C99.6236 33.5208 99.6853 33.4617 99.7149 33.4322C99.7177 33.3891 99.7255 33.3059 99.7283 33.2628C100.005 32.8596 100.096 32.3703 100.322 31.9402C100.496 31.6256 100.582 31.2734 100.73 30.9481C101.178 30.0933 101.42 29.1389 101.906 28.3054C101.965 28.0743 102.01 27.8324 102.145 27.6307C102.158 27.5983 102.188 27.5365 102.201 27.5069C102.279 27.351 102.351 27.1926 102.429 27.0366C102.553 26.6628 102.711 26.3026 102.883 25.9505C103.025 25.6546 103.092 25.3268 103.251 25.0363C103.433 24.6976 103.538 24.324 103.715 23.9825C103.731 23.9289 103.758 23.8213 103.772 23.7648C104.051 23.4421 104.056 22.9878 104.279 22.6329C104.558 22.0201 104.813 21.3964 105.055 20.7672C105.101 20.6571 105.149 20.547 105.2 20.4366C105.431 20.1435 105.471 19.7593 105.632 19.4284C105.729 19.2267 105.825 19.0224 105.93 18.821C105.987 18.6514 106.043 18.4823 106.097 18.3102C106.193 18.1193 106.287 17.9229 106.384 17.732C106.507 17.4174 106.623 17.1031 106.754 16.7912C106.905 16.5062 107.039 16.2106 107.136 15.8987C107.359 15.4522 107.541 14.99 107.726 14.5276C107.882 14.1674 108.086 13.8206 108.169 13.4334C108.331 13.1592 108.47 12.8742 108.54 12.5624C108.564 12.53 108.61 12.4629 108.631 12.4305C108.733 12.1187 108.897 11.8311 109.01 11.5246C109.045 11.4036 109.09 11.2826 109.176 11.1832C109.182 11.1376 109.19 11.0462 109.195 10.9979C109.284 10.8579 109.367 10.7129 109.45 10.5704C109.493 10.4197 109.539 10.2664 109.584 10.116C109.659 9.98161 109.732 9.84441 109.812 9.71001C109.985 9.38197 110.062 9.01368 110.25 8.69121C110.376 8.43303 110.457 8.15891 110.591 7.90351C110.599 7.84707 110.615 7.73417 110.623 7.68026C110.72 7.49751 110.798 7.30944 110.884 7.12112C110.886 7.07531 110.895 6.97862 110.9 6.93306C111.16 6.56452 111.101 6.07803 111.176 5.65077ZM110.9 12.041C110.895 12.0893 110.881 12.186 110.873 12.2343C110.634 12.6457 110.502 13.1109 110.339 13.5571C110.288 13.6457 110.237 13.7318 110.189 13.8206C110.073 14.1029 110.009 14.4094 109.866 14.6782C109.856 14.7159 109.837 14.7911 109.826 14.8288C109.67 15.1191 109.552 15.4282 109.455 15.7453C109.332 16.1407 109.093 16.4875 108.988 16.8879C108.886 17.3235 108.615 17.6918 108.492 18.1193C108.371 18.5575 108.132 18.9526 108.027 19.3988C108.006 19.4312 107.962 19.4958 107.941 19.5304C107.74 20.0359 107.536 20.5414 107.356 21.0578C107.278 21.2081 107.206 21.3615 107.128 21.5121C106.908 22.2406 106.564 22.926 106.314 23.6439C106.247 23.7512 106.199 23.8671 106.158 23.9853C106.016 24.3427 105.906 24.7138 105.734 25.0606C105.549 25.4154 105.482 25.8161 105.286 26.1654C106.285 26.2327 107.286 26.1763 108.288 26.195C111.112 26.1925 113.936 26.195 116.763 26.1925C116.611 25.6817 116.452 25.1681 116.229 24.6842C116.178 24.5713 116.13 24.4612 116.082 24.3508C116.028 24.1546 115.974 23.961 115.921 23.7676C115.856 23.6601 115.816 23.5444 115.773 23.4287C115.641 23.1786 115.604 22.8911 115.456 22.6491C115.448 22.6061 115.429 22.52 115.418 22.4745C115.263 22.1383 115.126 21.7941 115.032 21.4367C114.957 21.2727 114.881 21.1086 114.801 20.9502C114.782 20.8641 114.766 20.7753 114.75 20.6892C114.573 20.3802 114.516 20.0225 114.364 19.7C114.28 19.5332 114.213 19.3586 114.138 19.1918C114.106 19.0845 114.079 18.9769 114.049 18.8693C113.969 18.6301 113.872 18.3934 113.767 18.1649C113.518 17.5923 113.365 16.9848 113.094 16.4229C112.999 16.1326 112.879 15.8529 112.795 15.5598C112.581 15.2024 112.532 14.7749 112.326 14.4147C112.32 14.3664 112.307 14.2694 112.302 14.2211C112.1 13.9011 111.998 13.5356 111.899 13.1752C111.732 12.8446 111.592 12.4978 111.523 12.1349C111.397 11.8876 111.3 11.6297 111.208 11.3687C111.104 11.5919 111.037 11.8339 110.9 12.041ZM62.7795 6.31722C66.6673 6.29318 70.5549 6.31722 74.4425 6.30381C74.4693 6.47314 74.4935 6.64273 74.5176 6.81182C73.9993 6.81991 73.4814 6.8227 72.9766 6.95432C72.9308 7.02975 72.8853 7.10492 72.8396 7.17757C72.7832 7.19098 72.6679 7.21782 72.6088 7.23401C72.4182 7.49473 72.2437 7.7691 72.0744 8.04576C71.9457 8.53529 71.8972 9.07544 72.1497 9.53789C72.3428 9.88466 72.469 10.2691 72.7053 10.5919C72.861 10.8526 72.9579 11.1457 73.1351 11.393C73.3982 11.7775 73.5378 12.229 73.7953 12.6188C74.056 13.0972 74.3674 13.5544 74.5552 14.0705C74.8184 14.42 74.9983 14.8179 75.1996 15.2024C75.4359 15.5304 75.5701 15.9121 75.7607 16.2642C76.2307 17.0385 76.6091 17.8639 77.0737 18.6435C77.2052 18.8961 77.3581 19.1353 77.4926 19.3882C77.5032 19.4365 77.5219 19.5305 77.5328 19.579C77.847 19.9582 78.0108 20.4313 78.2818 20.8398C78.5636 21.5012 79.004 22.0793 79.2858 22.7405C79.3692 22.4555 79.5169 22.1975 79.6402 21.9313C79.6994 21.8857 79.7585 21.8374 79.8174 21.7915C79.9357 21.3372 80.2767 20.9985 80.4593 20.5738C80.6041 20.2701 80.8405 20.02 80.9747 19.7081C81.1248 19.3318 81.4229 19.0386 81.552 18.6542C81.7156 18.4096 81.8928 18.173 82.0164 17.9042C82.1749 17.5331 82.4702 17.2375 82.5963 16.853C82.8059 16.5249 82.9965 16.1863 83.2058 15.8582C83.5521 15.1943 83.9495 14.56 84.32 13.9092C84.6477 13.3607 84.9267 12.7801 85.3026 12.2612C85.3082 12.2262 85.3188 12.1564 85.3241 12.1215C85.5468 11.7962 85.7296 11.4466 85.9551 11.1214C86.0329 10.9252 86.135 10.7397 86.2531 10.5623C86.3471 10.4306 86.4356 10.2934 86.5028 10.1456C86.6585 9.80417 86.9298 9.50574 86.9619 9.11316C86.9834 8.71804 87.037 8.27458 86.7981 7.92756C86.5994 7.63192 86.4679 7.25275 86.0974 7.13454C86.0438 7.07278 85.9927 7.01102 85.9417 6.95179C85.4717 6.8308 84.9912 6.8065 84.5132 6.8308C84.5106 6.6559 84.5106 6.48125 84.5106 6.3066C88.017 6.3066 91.5206 6.3066 95.0245 6.3066C95.0245 6.48125 95.0245 6.6559 95.0245 6.8308C94.3854 6.79587 93.7519 6.85763 93.121 6.93837C93.0833 6.96521 93.0055 7.01887 92.9678 7.04595C92.7236 7.09429 92.4954 7.19909 92.2752 7.31198C91.1958 7.79594 90.3045 8.61856 89.5931 9.55409C89.4991 9.73962 89.3997 9.92237 89.2951 10.1026C89.0345 10.3471 88.9728 10.7263 88.7043 10.9574C88.6909 11.0032 88.6667 11.0918 88.6533 11.1376C88.4116 11.393 88.3123 11.7504 88.06 11.9977C87.8022 12.4897 87.4882 12.9494 87.1927 13.4174C86.9591 13.6809 86.9055 14.0651 86.6128 14.2775C86.6047 14.3259 86.5832 14.4172 86.5751 14.4658C86.2101 14.947 85.9389 15.4899 85.5953 15.982C85.1067 16.8208 84.5508 17.6166 84.0784 18.4633C84.0435 18.4955 83.9737 18.5628 83.9414 18.5949C83.8663 18.8665 83.6729 19.0791 83.5094 19.2968C83.3723 19.5871 83.179 19.8425 83.0179 20.1167C82.6903 20.5925 82.454 21.1302 82.0862 21.5792C81.9949 21.7647 81.8903 21.9422 81.7856 22.1221C81.4499 22.6413 81.0902 23.1437 80.8056 23.6947C80.6284 23.961 80.349 24.2136 80.3867 24.5632C80.392 28.3888 80.3839 32.2116 80.3895 36.0372C80.3867 36.5292 80.6633 36.9647 80.9479 37.3438C81.1304 37.6638 81.4767 37.8196 81.7399 38.0589C82.07 38.239 82.4353 38.3493 82.7978 38.4434C83.1628 38.481 83.5306 38.4486 83.8984 38.4567C83.8984 38.6314 83.8984 38.8062 83.9012 38.9783C80.4484 38.9783 76.9984 38.981 73.5456 38.9783C73.5618 38.8009 73.5833 38.6261 73.6075 38.4514C74.1204 38.454 74.6492 38.5186 75.1407 38.3222C75.5997 38.2417 75.9112 37.8815 76.3004 37.661C76.4266 37.4782 76.5499 37.2873 76.7193 37.1367C77.0171 36.6663 77.1784 36.1206 77.1541 35.5614C77.1675 31.9589 77.1516 28.3565 77.1622 24.754C77.1622 24.5417 77.1273 24.3321 77.0896 24.125C77.0494 24.0901 76.9663 24.023 76.9258 23.9878C76.8454 23.7193 76.6789 23.4905 76.4936 23.2837C76.4294 23.1412 76.3649 22.9987 76.2977 22.8562C75.9192 22.4099 75.715 21.8399 75.3553 21.3774C75.3419 21.3344 75.3151 21.2458 75.3017 21.2028C75.0547 20.9795 74.966 20.649 74.7782 20.3829C74.5284 20.0468 74.3646 19.657 74.1149 19.3209C73.9806 19.1032 73.8626 18.8802 73.7364 18.6595C73.5188 18.3532 73.3176 18.0333 73.1725 17.6865C73.1323 17.6594 73.0491 17.6057 73.0087 17.5789C72.947 17.423 72.8853 17.2671 72.8234 17.1137C72.6275 16.9203 72.4637 16.6864 72.3939 16.4176C72.3565 16.3827 72.2837 16.3179 72.2463 16.283C71.4596 14.8179 70.5172 13.444 69.6904 11.9977C69.5723 11.8499 69.4649 11.6914 69.3628 11.5302C69.3574 11.4763 69.3466 11.3662 69.3413 11.3122C69.2687 11.2667 69.199 11.2209 69.132 11.1753C68.8822 10.6349 68.5412 10.1428 68.2485 9.62673C67.7169 8.73146 66.9196 8.01362 66.0012 7.53244C65.7249 7.34969 65.3999 7.25831 65.1208 7.08341C65.0429 7.07278 64.9676 7.06468 64.8925 7.05379C64.71 6.90344 64.463 6.92496 64.2454 6.88471C63.7542 6.79587 63.2519 6.847 62.7555 6.80929C62.7633 6.64527 62.7714 6.48124 62.7795 6.31722Z" fill="white"/>
<path fill-rule="evenodd" clip-rule="evenodd" d="M42.4135 46.6989C42.937 46.637 43.4686 46.6451 43.9946 46.6908C43.8981 46.7499 43.8015 46.8118 43.7049 46.8735C43.6968 46.9838 43.6888 47.0913 43.6834 47.2042C43.7022 47.2607 43.7398 47.3789 43.7585 47.4354C43.823 47.6667 43.8713 47.9005 43.8981 48.1398C43.9276 48.1398 43.984 48.1371 44.0108 48.1371C44.0164 48.2419 44.0217 48.3468 44.0298 48.4543C44.1559 48.5727 44.1453 48.7528 44.188 48.9086C44.2095 48.9086 44.2578 48.906 44.2795 48.9033C44.2927 49.0431 44.3088 49.1829 44.325 49.3226C44.3627 49.449 44.3948 49.5753 44.4271 49.7017C44.529 49.8549 44.5505 50.0404 44.5856 50.2206C44.6043 50.2179 44.6473 50.2125 44.6685 50.2098C44.685 50.3711 44.7062 50.5298 44.7305 50.691C44.8862 50.32 44.956 49.9222 45.0902 49.5458L45.1519 49.5726C45.1895 49.3765 45.235 49.1829 45.2755 48.9893L45.348 48.9974C45.3533 48.9355 45.3667 48.8092 45.3721 48.7447C45.4044 48.6318 45.4365 48.5215 45.4636 48.4086L45.5225 48.4247C45.5601 48.2286 45.6084 48.0322 45.6461 47.836L45.7292 47.8522C45.732 47.723 45.7345 47.5941 45.7399 47.4677C45.7669 47.4704 45.8205 47.4757 45.8473 47.4785C45.893 47.223 45.9572 46.9731 46.0111 46.7203C46.0594 46.6908 46.1587 46.6343 46.2098 46.6074C46.3496 47.1398 46.5455 47.6639 46.7548 48.1721C46.7657 48.2231 46.7871 48.3199 46.7978 48.3709C46.8299 48.4813 46.8597 48.5914 46.8862 48.7043L46.9482 48.699C46.9858 48.8629 47.0232 49.027 47.0581 49.1909L47.1522 49.1668C47.1496 49.2393 47.1469 49.3845 47.1441 49.4571L47.2381 49.4383C47.2998 49.699 47.367 49.9572 47.4259 50.2179C47.453 50.2179 47.5066 50.2125 47.5334 50.2098C47.5281 50.2556 47.5174 50.3443 47.5147 50.3873L47.6514 50.4088C47.6704 50.2475 47.6944 50.0889 47.7161 49.9276L47.7993 49.9437C47.8071 49.8308 47.8208 49.7206 47.8342 49.6103C47.8905 49.4705 47.9065 49.3172 47.9226 49.1695L47.9899 49.1909C48.0195 49.0054 48.0569 48.8199 48.0973 48.6371C48.1456 48.5457 48.1886 48.449 48.226 48.3522C48.339 48.0591 48.3605 47.7392 48.4651 47.4462C48.4894 47.2526 48.5162 47.0617 48.5293 46.8682C48.4007 46.8171 48.2717 46.766 48.1428 46.7122C48.6368 46.6343 49.1388 46.6397 49.6358 46.7015C49.2786 46.8118 48.9457 47.0268 48.8625 47.4166C48.8569 47.5295 48.8544 47.6451 48.8491 47.7607C48.8221 47.7607 48.7685 47.7607 48.7442 47.7607C48.7146 47.8871 48.6878 48.0162 48.6691 48.1452L48.5645 48.1318C48.5645 48.2581 48.5645 48.3817 48.5645 48.5108C48.5377 48.5081 48.4785 48.5081 48.4489 48.5081C48.4113 48.7689 48.3524 49.0242 48.3094 49.285C48.2851 49.2824 48.2343 49.2769 48.2073 49.2742C48.202 49.4006 48.1967 49.527 48.1914 49.6533L48.1079 49.6372C48.0597 49.8496 48.0516 50.0781 47.9201 50.2582C47.9039 50.3549 47.8878 50.4517 47.8744 50.5485C47.8395 50.6588 47.8071 50.7717 47.7859 50.8873L47.724 50.8793C47.6838 51.1051 47.6433 51.3308 47.6168 51.5568C47.5657 51.5568 47.4583 51.5513 47.4072 51.5486C47.3213 51.2207 47.3026 50.8469 47.0581 50.5862C47.026 50.4303 46.9964 50.2744 46.9669 50.1184L46.8862 50.1372C46.8597 49.7286 46.6152 49.3792 46.5589 48.9758L46.4997 48.9921C46.4568 48.7985 46.4057 48.6075 46.3708 48.4113L46.2985 48.4382C46.2661 48.2796 46.2313 48.1263 46.1964 47.9731C46.1587 47.9166 46.0864 47.8038 46.0488 47.7473C45.8796 47.9408 45.893 48.2689 45.818 48.5189L45.7184 48.5027C45.7211 48.578 45.7265 48.7286 45.7292 48.8038L45.6299 48.7877C45.5975 48.949 45.5654 49.1103 45.5359 49.2742L45.4661 49.2609C45.4259 49.4893 45.3642 49.7125 45.3265 49.9437L45.254 49.9302C45.2219 50.0861 45.1895 50.2448 45.1627 50.4061C45.1385 50.4034 45.0902 50.4007 45.0687 50.3981C45.0659 50.4598 45.0606 50.5835 45.0581 50.6453C44.8351 50.9948 44.8753 51.4357 44.752 51.8202C44.7171 51.6965 44.6928 51.5674 44.6685 51.4437L44.5963 51.4545C44.5614 51.2745 44.5265 51.0943 44.4405 50.933C44.4029 50.8336 44.3652 50.734 44.325 50.6345C44.3197 50.5566 44.3035 50.4007 44.2982 50.3228C44.274 50.3254 44.2231 50.3335 44.1989 50.3361C44.1827 50.2044 44.1668 50.0701 44.1506 49.9383C44.121 49.9383 44.0619 49.941 44.0323 49.941C44.027 49.8792 44.0164 49.7501 44.0108 49.6883C43.8498 49.449 43.8177 49.156 43.7666 48.8817C43.7398 48.8817 43.6834 48.8817 43.6539 48.8817C43.6486 48.7769 43.6405 48.6721 43.6352 48.57C43.4767 48.4785 43.5169 48.2769 43.4767 48.129C43.4499 48.129 43.396 48.1318 43.3692 48.1318C43.3611 48.0242 43.3531 47.9166 43.3452 47.8118C43.3048 47.7097 43.2671 47.6049 43.2322 47.5026C43.1518 47.3333 43.0955 47.1559 43.012 46.9918C42.8161 46.8843 42.6121 46.7929 42.4135 46.6989V46.6989ZM62.1013 47.0752C62.045 48.5215 62.0933 49.976 62.0773 51.425C62.6787 51.3766 63.3445 51.5701 63.8921 51.2529C64.0076 51.1292 64.1231 51.0083 64.2225 50.8738L64.2922 50.9142C64.2948 50.7986 64.3271 50.6937 64.3863 50.5969C64.3916 50.7287 64.3916 50.8577 64.3916 50.9895L64.2599 50.9625C64.2735 51.011 64.2975 51.1131 64.3109 51.1642L64.201 51.1508C64.1661 51.312 64.1284 51.4733 64.0935 51.6347C63.1188 51.632 62.1443 51.6696 61.1724 51.6132C61.2851 51.5432 61.3978 51.4761 61.5081 51.4035C61.5187 50.0754 61.5053 48.7474 61.5161 47.4193C61.5134 47.2741 61.5134 47.1262 61.4838 46.9838C61.3334 46.844 61.1051 46.8278 60.9578 46.6747C61.5429 46.6478 62.1281 46.6531 62.7108 46.6719C62.5174 46.8225 62.3134 46.9569 62.1013 47.0752V47.0752ZM151.633 46.7418C152.156 46.6558 152.693 46.6693 153.219 46.7177C153.107 46.7553 152.989 46.7903 152.876 46.8251C152.806 46.9246 152.736 47.0214 152.666 47.1182C152.664 47.7688 152.666 48.422 152.664 49.0753C153.657 49.0861 154.648 49.0753 155.641 49.0808C155.644 48.4597 155.647 47.8387 155.641 47.2203C155.649 47.0725 155.579 46.9435 155.526 46.8145C155.386 46.7875 155.26 46.766 155.128 46.7284C155.652 46.6639 156.191 46.6585 156.715 46.7391C156.568 46.7687 156.417 46.7849 156.275 46.8063L156.272 46.9113L156.184 46.8924C156.154 47.0053 156.124 47.1182 156.095 47.2311C156.106 48.0189 156.055 48.8118 156.122 49.5996C156.073 50.2072 156.049 50.8281 156.173 51.4276C156.347 51.4868 156.525 51.538 156.704 51.5943C156.189 51.6373 155.641 51.7127 155.142 51.5648C155.273 51.5325 155.41 51.5029 155.55 51.4814C155.749 50.7932 155.596 50.0593 155.644 49.3521C154.65 49.3549 153.657 49.3442 152.664 49.3576C152.664 49.9947 152.669 50.6292 152.661 51.2664L152.744 51.2529C152.76 51.3013 152.79 51.3981 152.803 51.4465C152.905 51.4814 153.112 51.5513 153.214 51.5863C152.717 51.6777 152.202 51.6589 151.705 51.5917C151.891 51.5191 152.215 51.4922 152.183 51.2126C152.204 50.105 152.183 48.9974 152.191 47.8898C152.18 47.5242 152.242 47.1451 152.089 46.7982C151.933 46.7821 151.783 46.7687 151.633 46.7418V46.7418ZM147.428 47.5725C147.49 47.1317 147.817 46.7338 148.258 46.637C148.693 46.5591 149.13 46.6585 149.565 46.68C149.56 46.9703 149.555 47.2607 149.506 47.5483C149.479 47.422 149.458 47.2957 149.442 47.172C149.351 47.0994 149.259 47.0268 149.168 46.9569L149.163 46.8924C148.875 46.7795 148.569 46.7875 148.271 46.8278C148.169 46.9354 148.059 47.0349 147.941 47.1209C147.874 47.2499 147.812 47.3763 147.742 47.5026C147.742 47.5564 147.745 47.6613 147.745 47.715C147.831 47.8844 147.882 48.0753 148.019 48.215C148.051 48.2419 148.113 48.2957 148.145 48.3226L148.158 48.3441C148.328 48.5001 148.534 48.6183 148.663 48.8173C148.959 48.9974 149.136 49.3172 149.434 49.5001L149.458 49.5082C149.6 49.6749 149.702 49.8711 149.815 50.0565C149.823 50.3335 149.82 50.6104 149.82 50.8873L149.751 50.8819C149.686 51.0486 149.624 51.2126 149.549 51.3739C149.418 51.4492 149.278 51.5056 149.141 51.5648L149.16 51.6481C149.087 51.6454 148.945 51.64 148.873 51.6373L148.891 51.7449C148.599 51.7584 148.309 51.7584 148.019 51.7341L148.027 51.6373C147.965 51.6373 147.839 51.6373 147.777 51.6373C147.616 51.5217 147.428 51.4572 147.246 51.3873C147.24 51.1534 147.24 50.9223 147.216 50.691C147.219 50.5028 147.329 50.3685 147.503 50.3066C147.495 50.4384 147.487 50.5728 147.479 50.7045C147.482 50.7878 147.493 50.9545 147.498 51.0379C147.565 51.0943 147.632 51.1508 147.705 51.2099C147.713 51.2529 147.726 51.3416 147.734 51.3846C148.196 51.511 148.862 51.6535 149.189 51.2019C149.259 51.0997 149.324 50.9948 149.385 50.8873H149.439C149.436 50.7045 149.439 50.5217 149.442 50.3388C149.34 50.1776 149.246 50.0136 149.13 49.8684C148.983 49.7528 148.843 49.6264 148.69 49.5216L148.682 49.4866C148.607 49.4222 148.534 49.3629 148.465 49.3012C148.244 49.0753 148.003 48.8765 147.791 48.6506C147.71 48.5727 147.632 48.5001 147.554 48.4247C147.506 48.2769 147.455 48.129 147.375 47.9973C147.369 47.8494 147.364 47.7015 147.361 47.5538L147.428 47.5725ZM143.216 46.6666C143.275 46.6827 143.393 46.7122 143.452 46.7284C143.46 46.7849 143.476 46.8978 143.484 46.9542C143.669 47.2876 143.774 47.6613 143.892 48.0242C143.911 48.0242 143.951 48.0242 143.973 48.0242C143.992 48.0886 144.032 48.2178 144.053 48.2822C144.145 48.4543 144.217 48.6371 144.257 48.828C144.36 48.9813 144.413 49.1613 144.518 49.3172C144.51 49.3522 144.497 49.4194 144.491 49.4544L144.596 49.4464C144.682 49.7393 144.749 50.0458 144.918 50.3066C145.092 50.5566 145.055 50.9088 145.27 51.132C145.267 51.1642 145.264 51.2288 145.261 51.2609L145.334 51.2556C145.466 51.4949 145.748 51.5164 145.984 51.5917C145.436 51.6508 144.867 51.6885 144.322 51.5782C144.41 51.5568 144.588 51.5164 144.676 51.4949C144.749 51.1749 144.655 50.8255 144.44 50.5781C144.389 50.4061 144.375 50.2072 144.241 50.0754C144.239 50.0404 144.239 49.9705 144.236 49.9356C143.578 49.9195 142.923 49.9302 142.265 49.9276C142.206 50.0432 142.152 50.1588 142.099 50.2744C142.072 50.3711 142.048 50.4679 142.029 50.5648C141.887 50.8416 141.752 51.1292 141.736 51.4437C141.871 51.4949 142.007 51.5432 142.144 51.5943C141.656 51.6669 141.154 51.6589 140.665 51.5943C140.858 51.5299 141.054 51.4653 141.248 51.3927C141.261 51.3336 141.285 51.2152 141.296 51.1561C141.358 51.0997 141.42 51.0432 141.487 50.9895C141.554 50.7448 141.605 50.4921 141.731 50.2717C141.908 49.9195 142.075 49.5539 142.174 49.1695L142.228 49.1909C142.273 49.0378 142.295 48.8657 142.41 48.742C142.418 48.7017 142.437 48.6157 142.445 48.5727C142.639 48.3817 142.641 48.0806 142.73 47.8333L142.837 47.8414C142.829 47.8065 142.816 47.7392 142.808 47.707C142.953 47.5 143.02 47.2554 143.143 47.0375C143.17 46.9138 143.189 46.7903 143.216 46.6666V46.6666ZM143.232 47.4757C143.167 47.6424 143.111 47.8118 143.049 47.9812C142.974 48.121 142.928 48.2715 142.891 48.4247C142.837 48.4813 142.783 48.5376 142.735 48.5969C142.641 48.9813 142.51 49.3576 142.386 49.7313C142.95 49.7448 143.517 49.734 144.08 49.7393C144.048 49.5512 144.01 49.3629 143.978 49.1749C143.949 49.1749 143.892 49.1774 143.863 49.1774C143.86 49.1157 143.855 48.9946 143.849 48.9355C143.64 48.6882 143.715 48.301 143.487 48.0806C143.482 48.0296 143.474 47.9274 143.468 47.879C143.382 47.7473 143.31 47.6102 143.232 47.4757V47.4757ZM138.152 46.7122C138.678 46.6827 139.213 46.6478 139.733 46.7446C139.543 46.7714 139.355 46.7903 139.17 46.809C139.001 46.9757 138.815 47.1236 138.66 47.3037C138.482 47.5699 138.198 47.7473 138.045 48.0322C137.988 48.1263 137.902 48.1936 137.825 48.2661C137.706 48.4086 137.578 48.5404 137.459 48.6829C137.449 48.6882 137.422 48.699 137.411 48.7043C137.339 48.8146 137.266 48.9221 137.191 49.0296C137.344 49.1909 137.5 49.3576 137.621 49.5485C137.725 49.6613 137.83 49.7797 137.956 49.8711C137.983 49.9114 138.034 49.9867 138.061 50.0244C138.125 50.1023 138.195 50.1802 138.27 50.2556L138.26 50.277C138.565 50.6508 138.955 50.9653 139.191 51.3927C139.417 51.468 139.648 51.5217 139.878 51.5863C139.623 51.6428 139.36 51.64 139.103 51.6428L139.127 51.5621C138.906 51.4975 138.608 51.5056 138.507 51.2609L138.485 51.2664C138.399 51.1588 138.297 51.0755 138.187 50.9975C138.106 50.8094 137.983 50.6508 137.849 50.5002L137.814 50.5056C137.752 50.4276 137.69 50.3549 137.631 50.2825C137.578 50.2072 137.527 50.1319 137.478 50.0593C137.349 49.9114 137.223 49.7636 137.1 49.613C137 49.5082 136.898 49.4033 136.788 49.3119C136.767 49.2661 136.726 49.1774 136.705 49.1318C136.837 49.0081 136.965 48.8845 137.089 48.7554C137.145 48.629 137.228 48.5215 137.339 48.4355C137.363 48.3952 137.411 48.3118 137.438 48.2715C137.5 48.1936 137.564 48.1156 137.629 48.0376L137.664 48.0322C137.728 47.8978 137.825 47.7876 137.935 47.6881C138.02 47.5645 138.106 47.4354 138.192 47.3118C138.458 47.215 138.638 46.6478 138.152 46.7122V46.7122ZM135.505 46.7418C136.012 46.6451 136.541 46.6666 137.054 46.7365C136.928 46.7607 136.807 46.7821 136.686 46.8037C136.616 46.9113 136.544 47.0161 136.471 47.1182C136.463 48.5001 136.477 49.8845 136.466 51.2664L136.522 51.2609C136.587 51.4949 136.82 51.5299 137.022 51.5943C136.501 51.6642 135.967 51.6642 135.446 51.5943C135.618 51.5352 135.789 51.4761 135.964 51.4168C136.036 50.3066 135.975 49.1909 135.996 48.078C135.975 47.6559 136.063 47.2177 135.9 46.8171C135.803 46.7982 135.604 46.7607 135.505 46.7418ZM131.539 46.7015C131.585 46.6961 131.679 46.6908 131.727 46.6881C131.751 46.8171 131.781 46.9488 131.811 47.0805C131.843 47.0833 131.905 47.0859 131.934 47.0887C131.929 47.1209 131.915 47.1881 131.907 47.2203C132.157 47.5134 132.09 47.9569 132.372 48.2312C132.417 48.3737 132.468 48.5162 132.538 48.6506C132.576 48.7447 132.616 48.8388 132.656 48.9355C132.667 48.9813 132.691 49.0753 132.702 49.121C132.798 49.2528 132.831 49.4168 132.879 49.57L132.973 49.5485C132.97 49.5861 132.962 49.6588 132.96 49.6937C133.124 49.8926 133.156 50.1588 133.22 50.4007C133.25 50.4007 133.303 50.4007 133.33 50.4007C133.333 50.4598 133.338 50.5781 133.344 50.64C133.489 50.7664 133.464 50.9895 133.604 51.1239C133.617 51.1777 133.642 51.2825 133.655 51.3336C133.843 51.4626 134.055 51.5352 134.275 51.5943C133.725 51.6642 133.161 51.6669 132.613 51.5917C132.705 51.5648 132.887 51.5056 132.978 51.4761C132.981 51.2745 132.968 51.0755 132.96 50.8738L132.89 50.8873C132.839 50.7637 132.798 50.6373 132.721 50.5298C132.672 50.3281 132.621 50.1319 132.565 49.933C131.888 49.9383 131.206 49.8926 130.53 49.9572C130.506 50.0781 130.487 50.1991 130.474 50.3228C130.452 50.32 130.406 50.3174 130.382 50.3174C130.342 50.4598 130.353 50.6345 130.232 50.7421C130.218 50.7905 130.197 50.8873 130.186 50.9357C130.098 51.1078 130.111 51.3013 130.114 51.4895C130.205 51.5136 130.385 51.5621 130.476 51.5863C129.996 51.6669 129.502 51.6669 129.021 51.5917C129.204 51.5244 129.391 51.4626 129.577 51.3981C129.649 51.1696 129.749 50.9492 129.867 50.7395C129.95 50.5862 130.001 50.4168 130.087 50.2636C130.103 50.2152 130.135 50.1184 130.151 50.0701C130.183 49.9625 130.213 49.8549 130.243 49.7475L130.302 49.7689C130.345 49.6157 130.39 49.4597 130.474 49.3226C130.519 49.1909 130.567 49.0565 130.61 48.9248C130.693 48.7661 130.734 48.5861 130.86 48.4516C130.868 48.4059 130.884 48.3146 130.892 48.2689C131.099 48.0619 131.043 47.7123 131.255 47.5081C131.255 47.4865 131.257 47.4462 131.257 47.4246C131.349 47.2929 131.394 47.1398 131.443 46.9892C131.464 46.9892 131.51 46.9945 131.534 46.9973C131.534 46.9219 131.537 46.7741 131.539 46.7015V46.7015ZM131.456 47.6962C131.4 47.8575 131.359 48.0269 131.266 48.1747C131.255 48.2178 131.236 48.3091 131.225 48.3549C131.029 48.5673 131.059 48.8925 130.884 49.1238C130.879 49.1855 130.868 49.3066 130.863 49.3684C130.839 49.3657 130.79 49.3576 130.766 49.3521C130.747 49.449 130.707 49.6399 130.688 49.7367C131.266 49.7393 131.843 49.7367 132.423 49.7393C132.417 49.6668 132.409 49.5216 132.404 49.449L132.326 49.4517C132.173 49.1022 132.117 48.7204 131.953 48.3764C131.802 48.0833 131.717 47.7634 131.59 47.4597C131.558 47.5187 131.491 47.637 131.456 47.6962V47.6962ZM123.531 46.7418C124.127 46.6478 124.731 46.6989 125.329 46.6854C125.608 46.6934 125.912 46.6423 126.17 46.7795C126.272 46.8198 126.376 46.8601 126.478 46.9031C126.554 46.9784 126.631 47.051 126.715 47.1209L126.707 47.1424C126.814 47.2634 126.878 47.4113 126.93 47.5645L126.994 47.5564C126.994 47.8467 126.994 48.1344 126.991 48.4247L126.908 48.4086C126.849 48.621 126.819 48.8711 126.578 48.9517C126.537 49.0216 126.497 49.0941 126.457 49.1668C126.325 49.2125 126.189 49.2447 126.089 49.3469C126.014 49.3603 125.861 49.3898 125.786 49.4033C125.831 49.4168 125.923 49.4436 125.968 49.4571L125.96 49.5109C126.248 49.7877 126.476 50.1184 126.704 50.4437L126.699 50.4813C126.787 50.5835 126.878 50.6883 126.97 50.7932C127.056 50.9895 127.243 51.0943 127.407 51.218C127.555 51.5083 127.901 51.4949 128.172 51.5863C127.695 51.718 127.15 51.5943 126.782 51.269C126.76 51.269 126.717 51.269 126.699 51.269L126.693 51.2126C126.58 51.0943 126.481 50.9653 126.39 50.8336C126.124 50.5485 125.992 50.1614 125.7 49.8953C125.676 49.8469 125.63 49.7501 125.608 49.7017C125.517 49.6076 125.429 49.5162 125.343 49.4222C125.222 49.3469 125.106 49.2661 124.994 49.1829C125.155 49.1801 125.316 49.1801 125.482 49.1801L125.466 49.0834C125.595 49.0834 125.724 49.0834 125.858 49.0834L125.837 49.0001C126.105 48.9677 126.256 48.7366 126.371 48.5134L126.449 48.5081C126.476 48.1075 126.529 47.6747 126.296 47.3198C126.213 47.2311 126.135 47.137 126.062 47.043C126.006 47.0322 125.893 47.008 125.837 46.9945L125.855 46.8978C125.447 46.9031 125.037 46.8789 124.628 46.8897C124.628 48.3495 124.634 49.8066 124.626 51.2664L124.682 51.2609C124.747 51.4895 124.996 51.5083 125.184 51.6024C124.682 51.6616 124.169 51.6589 123.668 51.5997C123.853 51.511 124.188 51.4895 124.148 51.2099C124.167 50.1023 124.151 48.9974 124.156 47.8898C124.145 47.5242 124.21 47.1398 124.049 46.7982C123.874 46.7821 123.702 46.7687 123.531 46.7418V46.7418ZM118.574 46.7365C119.116 46.6451 119.667 46.7015 120.215 46.6854C120.497 46.6989 120.805 46.6343 121.063 46.7821C121.195 46.8306 121.326 46.8817 121.463 46.93C121.568 47.0617 121.673 47.1908 121.791 47.3171C121.785 47.3521 121.772 47.4246 121.767 47.4623L121.887 47.4462C121.938 47.7822 121.949 48.1236 121.912 48.4597C121.85 48.5565 121.796 48.656 121.748 48.7581C121.656 48.8629 121.565 48.9677 121.479 49.0781C121.455 49.0753 121.407 49.0726 121.383 49.07L121.409 49.1533C121.262 49.207 121.114 49.2661 120.985 49.3603C120.593 49.3953 120.193 49.4006 119.809 49.3012C120.094 49.2017 120.421 49.2716 120.679 49.0995C120.725 49.0861 120.813 49.0645 120.859 49.0512C120.961 48.949 121.077 48.8603 121.195 48.7689C121.257 48.6371 121.321 48.5081 121.404 48.387C121.404 48.1506 121.404 47.9166 121.404 47.6828C121.297 47.3575 121.09 47.0966 120.813 46.9005C120.397 46.8817 119.984 46.8817 119.568 46.8897C119.586 48.3845 119.535 49.8792 119.594 51.3739C119.766 51.4545 119.941 51.5244 120.124 51.597C119.608 51.6642 119.082 51.6616 118.569 51.5943C118.746 51.5352 118.923 51.4787 119.103 51.4196C119.178 50.3093 119.116 49.1937 119.135 48.0806C119.114 47.6585 119.205 47.2177 119.041 46.8145C118.88 46.7903 118.727 46.7714 118.574 46.7365V46.7365ZM99.0635 46.7177C99.5656 46.6639 100.073 46.6773 100.575 46.7177C100.382 46.7687 100.186 46.8145 100.025 46.9381C99.9817 47.6505 100.014 48.3629 100.003 49.0781C100.997 49.0834 101.987 49.0753 102.978 49.0808C102.965 48.3925 103.021 47.6962 102.954 47.0106C102.788 46.9058 102.616 46.8063 102.446 46.7122C102.777 46.637 103.118 46.6612 103.456 46.6531C103.66 46.6666 103.861 46.6934 104.065 46.7284C103.92 46.766 103.775 46.7982 103.633 46.8306C103.598 46.8789 103.531 46.9703 103.499 47.0161L103.502 47.0322C103.459 48.5001 103.464 49.9733 103.499 51.4412C103.676 51.4975 103.856 51.546 104.041 51.5917C103.51 51.6508 102.967 51.6777 102.438 51.5943C102.613 51.4868 102.981 51.5056 102.97 51.2233C103 50.5997 102.973 49.976 102.983 49.3521C101.99 49.3521 100.997 49.3469 100.003 49.3549C100.046 50.0485 99.9094 50.7664 100.086 51.4437C100.242 51.4895 100.395 51.538 100.554 51.589C100.03 51.6723 99.4905 51.6589 98.967 51.5917C99.1414 51.5352 99.3214 51.4761 99.4986 51.4168C99.5709 50.3066 99.512 49.1909 99.5307 48.0806C99.5067 47.6613 99.6032 47.223 99.4366 46.8251C99.3077 46.7956 99.1844 46.7579 99.0635 46.7177V46.7177ZM93.3289 46.723C93.8764 46.6693 94.4323 46.6558 94.9745 46.7365C94.792 46.7768 94.6014 46.7903 94.4161 46.8118L94.4267 46.9246L94.3488 46.8978C94.2738 46.9731 94.1987 47.0483 94.1234 47.1209L94.1287 47.1451C93.9543 47.3682 93.863 47.6451 93.6618 47.8494C93.5918 48.0107 93.5167 48.1667 93.4469 48.328L93.3476 48.3199C93.3529 48.3495 93.3582 48.4086 93.3635 48.4382C93.181 48.6183 93.0601 48.8468 92.9555 49.0781L92.9044 49.07C92.867 49.1721 92.8321 49.2742 92.797 49.3765L92.7032 49.3603C92.7085 50.0216 92.7032 50.6857 92.7057 51.347C92.867 51.4787 93.0629 51.538 93.2588 51.5943C92.7166 51.6696 92.1635 51.6561 91.621 51.5917C91.8119 51.5432 92.0025 51.4895 92.1903 51.4276C92.2656 50.9492 92.228 50.4625 92.2386 49.9813C92.2305 49.6963 92.2844 49.3684 92.0723 49.1399C92.0131 49.0162 91.9461 48.8953 91.8574 48.7904C91.8359 48.7366 91.7957 48.629 91.7742 48.5753C91.5434 48.457 91.5139 48.1855 91.393 47.9838C91.1835 47.7607 91.0439 47.4865 90.8829 47.2311C90.6357 46.9999 90.3943 46.7633 90.0452 46.7122C90.6413 46.629 91.2532 46.637 91.8521 46.7015C91.7232 46.766 91.5917 46.8225 91.4628 46.8843C91.4009 47.1155 91.4949 47.3548 91.6668 47.5134C91.6587 47.5457 91.6481 47.6129 91.6425 47.6451L91.7472 47.637C91.8197 47.8198 91.9057 48 92.005 48.1774C92.1607 48.5081 92.3756 48.8092 92.5475 49.1372C92.6977 48.9275 92.8374 48.7124 92.9745 48.4946C93.02 48.3952 93.0682 48.2957 93.1193 48.1989C93.2052 48.0941 93.2454 47.9651 93.2965 47.8414L93.3529 47.8548C93.4952 47.6155 93.5703 47.3359 93.7664 47.1343C93.7422 47.0617 93.6939 46.9219 93.6696 46.8521L93.6456 46.809C93.5409 46.7795 93.4335 46.7526 93.3289 46.723V46.723ZM85.352 46.7365C86.0287 46.6451 86.716 46.6827 87.3952 46.7122V46.7849C87.5108 46.8063 87.6288 46.8359 87.7443 46.8763C87.7711 46.8789 87.8222 46.887 87.849 46.8897C87.967 47.0456 88.0798 47.2069 88.2383 47.3252C88.3644 47.7258 88.4531 48.328 88.0477 48.5941C87.9617 48.7716 87.8007 48.8657 87.6154 48.9114C87.7739 48.9571 87.9269 49.0216 88.0798 49.0914L88.0717 49.1452C88.1791 49.1963 88.2866 49.2528 88.3968 49.3092C88.4557 49.3979 88.5176 49.4839 88.5818 49.5726C88.8156 50.0001 88.7886 50.5271 88.6382 50.9787C88.555 51.0593 88.4772 51.1428 88.3993 51.226C88.2115 51.4787 87.8758 51.4895 87.5965 51.5594L87.602 51.6373C86.8717 51.6212 86.1333 51.6831 85.4058 51.5997C85.556 51.5272 85.7119 51.4653 85.8649 51.4035C85.924 50.2663 85.8755 49.1264 85.8917 47.9893C85.8755 47.5967 85.9481 47.1908 85.7976 46.8171C85.6475 46.7929 85.4996 46.7687 85.352 46.7365V46.7365ZM86.3641 46.9031C86.3641 48.3978 86.3669 49.898 86.3616 51.3954C86.8556 51.3846 87.3899 51.5003 87.8356 51.226C87.9241 51.1131 88.0128 51.0002 88.0934 50.8819L88.1417 50.8846C88.2679 50.5809 88.2893 50.2528 88.2651 49.9302L88.1657 49.9437C88.1632 49.8792 88.1551 49.7528 88.1496 49.691C88.0396 49.5593 87.9403 49.4222 87.8409 49.2877C87.7764 49.2661 87.6503 49.2232 87.5858 49.2017C87.2476 49.0753 86.8876 49.0645 86.5335 49.0216C86.7562 48.9625 86.9817 48.906 87.2074 48.8549C87.3495 48.8549 87.4569 48.7635 87.5323 48.6506C87.6099 48.5592 87.688 48.4677 87.7711 48.3817C87.7954 47.9705 87.8677 47.5106 87.5752 47.172L87.5323 47.1908C87.2448 46.8278 86.7696 46.8897 86.3641 46.9031V46.9031ZM76.4249 46.723C77.0182 46.6773 77.6223 46.6504 78.2131 46.7365C78.0895 46.766 77.9633 46.7956 77.8397 46.8225C77.8238 46.9219 77.8076 47.0242 77.797 47.1262C77.9151 47.2822 77.9957 47.4597 78.0546 47.6478L78.1137 47.637C78.1567 47.75 78.2022 47.8629 78.248 47.9785C78.4735 48.1532 78.4682 48.4677 78.6588 48.6667C78.6721 48.7043 78.6964 48.7769 78.7098 48.8146C78.793 48.9141 78.8602 49.027 78.9138 49.1506C79.1957 48.7366 79.4588 48.3038 79.6603 47.8414L79.7139 47.8522C79.8481 47.6182 79.9394 47.3548 80.1085 47.1398C80.1059 47.0887 80.1004 46.9892 80.0979 46.9381C79.9742 46.8547 79.8537 46.7714 79.7326 46.6881C79.9664 46.6639 80.2053 46.6558 80.4414 46.6612C80.7422 46.6585 81.0483 46.6558 81.3464 46.715C81.2334 46.7553 81.1181 46.7929 81.0053 46.8306C80.9007 46.8575 80.7986 46.9354 80.6911 46.8817C80.6454 46.9407 80.5569 47.0617 80.5139 47.1209C80.3984 47.3279 80.2723 47.5295 80.1166 47.707C80.1166 47.7392 80.1166 47.801 80.1166 47.8306L80.0228 47.8226C79.9583 48.0081 79.8696 48.1855 79.7675 48.3549C79.5769 48.57 79.4345 48.8226 79.3165 49.0834L79.2629 49.0673C79.228 49.1695 79.1931 49.2716 79.1608 49.3765L79.0642 49.3603C79.0695 50.0216 79.0642 50.6857 79.0667 51.347C79.2305 51.4814 79.432 51.538 79.6307 51.597C79.0829 51.6616 78.5273 51.6616 77.9823 51.589C78.1754 51.5164 78.5245 51.5755 78.5622 51.304C78.6373 50.769 78.5809 50.2287 78.5996 49.691C78.6211 49.4194 78.4815 49.1829 78.385 48.9409C78.3473 48.9114 78.2667 48.8521 78.2293 48.8254C78.1782 48.699 78.138 48.5673 78.0306 48.4813C77.9848 48.3845 77.9419 48.2903 77.9044 48.1962C77.8319 48.0994 77.7646 47.9973 77.7002 47.9005C77.4775 47.6801 77.4454 47.3414 77.2224 47.1236C77.1605 47.0537 77.1041 46.9838 77.0477 46.9113C76.8599 46.7929 76.637 46.7714 76.4249 46.723V46.723ZM70.964 46.7446C71.7964 46.637 72.6394 46.6961 73.4772 46.6961L73.4582 46.7795C73.6114 46.8037 73.7643 46.8359 73.912 46.895C73.9817 46.9731 74.0596 47.0483 74.1455 47.1155L74.1347 47.1398C74.2557 47.2554 74.3066 47.4139 74.3604 47.5645L74.4274 47.5564C74.4274 47.8467 74.4274 48.1344 74.4249 48.4247L74.3414 48.4086C74.2798 48.621 74.253 48.8737 74.0113 48.9517C73.9709 49.0216 73.9307 49.0941 73.8933 49.1668C73.7643 49.2125 73.6273 49.242 73.5254 49.3415C73.4501 49.3549 73.2972 49.3873 73.2193 49.4006C73.2567 49.4168 73.3268 49.4464 73.3616 49.4625C73.418 49.535 73.4744 49.6103 73.5361 49.6857C73.7805 49.9007 73.9415 50.1857 74.1374 50.4437L74.1321 50.476C74.3576 50.7368 74.5348 51.0405 74.8409 51.2207C74.9967 51.511 75.3483 51.4949 75.6223 51.5917C75.1362 51.7127 74.5859 51.5997 74.2128 51.269C74.1913 51.2664 74.1511 51.2664 74.1293 51.2664L74.1268 51.2126C74.0113 51.097 73.9145 50.968 73.8235 50.8362C73.6893 50.7045 73.5899 50.5459 73.4959 50.3873C73.281 50.0485 73.0098 49.7501 72.7843 49.4168C72.6528 49.3684 72.5454 49.2905 72.4595 49.1801C72.6099 49.1801 72.7603 49.1801 72.9132 49.1829L72.8998 49.0808C73.0313 49.0808 73.1602 49.0834 73.2919 49.0861L73.2704 49.0108C73.4582 48.9248 73.6245 48.8065 73.7749 48.6667C73.7669 48.629 73.7535 48.5537 73.7456 48.5162C73.7805 48.5134 73.8503 48.5108 73.8824 48.5081C73.9145 48.1022 73.9496 47.6721 73.7348 47.309C73.5924 47.1801 73.4476 47.051 73.2757 46.965L73.2891 46.8978C72.8783 46.9031 72.4701 46.8789 72.0621 46.8897C72.0621 48.3495 72.0674 49.8066 72.0596 51.2664L72.1184 51.2609C72.1776 51.4949 72.4273 51.5164 72.6179 51.5943C72.0889 51.6696 71.5494 51.6561 71.0204 51.5943C71.2352 51.5244 71.6192 51.5244 71.5815 51.2072C71.6002 49.9114 71.5815 48.613 71.5922 47.3171C71.6055 47.1343 71.5386 46.965 71.4822 46.7982C71.3075 46.7821 71.1359 46.7687 70.964 46.7446V46.7446ZM65.9381 46.7418C66.9341 46.6047 67.949 46.7714 68.945 46.6074C68.9397 46.8494 68.9288 47.094 68.8967 47.3359C68.8724 47.2284 68.8512 47.1182 68.8322 47.008L68.7167 47.0242L68.7276 46.8978C68.153 46.8789 67.5757 46.8843 67.0013 46.8897C67.0013 47.6182 67.0013 48.3468 67.0013 49.0781C67.4872 49.0808 67.973 49.0781 68.4591 49.0808L68.4483 48.9705L68.5557 48.9677C68.5719 48.8521 68.5906 48.7366 68.6121 48.621C68.698 49.0081 68.6846 49.4087 68.6202 49.8013C68.5878 49.6588 68.561 49.5136 68.5395 49.371C68.0269 49.3362 67.514 49.3521 67.0013 49.3549C67.0013 50.0458 67.0013 50.734 67.0013 51.425C67.6027 51.3766 68.2685 51.5701 68.8189 51.2529C68.9316 51.1292 69.0471 51.0083 69.149 50.8765L69.2081 50.9115C69.2243 50.7395 69.3396 50.6077 69.4283 50.4705C69.4202 50.4948 69.4015 50.5432 69.3906 50.5673C69.3505 50.7045 69.3184 50.8469 69.2913 50.9895L69.1839 50.9625C69.1973 51.0136 69.2215 51.1158 69.2349 51.1669L69.125 51.1508C69.0898 51.312 69.0524 51.4733 69.0175 51.6347C68.0456 51.6159 67.063 51.6992 66.0964 51.589C66.1932 51.5486 66.3838 51.4653 66.4803 51.425C66.5152 50.4384 66.4856 49.4517 66.4965 48.4651C66.4856 47.9139 66.5258 47.3601 66.4614 46.8118C66.2844 46.7903 66.1125 46.7687 65.9381 46.7418V46.7418ZM55.9746 46.7338C56.5006 46.6666 57.0378 46.6612 57.5639 46.7258C57.4458 46.7607 57.3222 46.7875 57.2041 46.8171C57.1397 46.9193 57.0755 47.0214 57.0055 47.1209C57.0001 48.5537 57.0055 49.9894 57.0027 51.4223C57.5398 51.4276 58.0795 51.4437 58.6137 51.4008C58.6137 51.3685 58.6111 51.3094 58.6111 51.2798C58.662 51.2745 58.7669 51.2637 58.8205 51.2583C58.893 51.1588 58.9789 51.0728 59.0811 51.0029C59.0836 50.968 59.0942 50.9007 59.0998 50.8657C59.14 50.8793 59.2204 50.9088 59.2608 50.9249C59.191 50.718 59.3387 50.6184 59.481 50.5217C59.344 50.6345 59.3414 50.8094 59.3306 50.9733C59.3038 50.968 59.2449 50.9572 59.215 50.9518C59.2072 51.0324 59.191 51.1938 59.1802 51.2745L59.0811 51.2529C59.0811 51.3282 59.0811 51.4761 59.0811 51.5486L58.96 51.5217L58.9896 51.6428C57.9855 51.6104 56.9761 51.6965 55.9771 51.5917C56.1465 51.5299 56.3586 51.538 56.4872 51.39C56.5358 51.2099 56.5302 51.0191 56.5302 50.8336C56.5249 49.6318 56.533 48.4274 56.5277 47.2258C56.533 47.0779 56.466 46.9435 56.4283 46.8063C56.2752 46.7849 56.125 46.7633 55.9746 46.7338V46.7338ZM34.5387 46.7365C35.0759 46.6666 35.6234 46.6585 36.1631 46.7311C36.0423 46.7579 35.9242 46.7795 35.8034 46.801C35.7389 46.9085 35.6717 47.0161 35.5994 47.1209C35.586 48.7716 35.6181 50.4222 35.5832 52.0729C35.4649 52.253 35.3873 52.452 35.2905 52.6456C35.1858 52.7127 35.0865 52.7879 34.9952 52.8713C34.9012 52.9036 34.8074 52.9332 34.7162 52.9627C34.7187 52.9896 34.724 53.0434 34.7293 53.0703C34.5792 53.0541 34.4313 53.046 34.2836 53.0219C34.3911 52.9573 34.4985 52.8955 34.6087 52.8336C34.7617 52.6858 34.9361 52.5325 34.9631 52.3068L35.0382 52.3283C35.0812 52.0863 35.1322 51.8416 35.1242 51.5943C35.1214 50.3281 35.1242 49.0645 35.1242 47.801C35.1188 47.4704 35.1643 47.1262 35.0248 46.8145C34.8638 46.7903 34.7 46.766 34.5387 46.7365V46.7365ZM16.2738 46.7365C16.7732 46.6585 17.286 46.6719 17.7907 46.715C17.6323 46.7768 17.4794 46.8521 17.3371 46.9435C17.2941 48.1452 17.329 49.3469 17.3182 50.5485C17.3263 50.8469 17.2753 51.1588 17.3961 51.4384C17.5438 51.4868 17.6887 51.538 17.8365 51.5917C17.3237 51.6696 16.7947 51.6616 16.2819 51.5943C16.4592 51.5352 16.6363 51.4761 16.8136 51.4168C16.8834 50.3093 16.8242 49.1937 16.8431 48.0833C16.8216 47.6585 16.9155 47.2177 16.7464 46.8118C16.5879 46.7903 16.4296 46.7714 16.2738 46.7365V46.7365ZM115.803 46.7338C115.83 46.68 115.887 46.5725 115.914 46.5186C115.962 47.1881 116.059 47.8522 116.067 48.5242C116.093 48.5215 116.147 48.5134 116.171 48.5108C116.182 48.8307 116.198 49.148 116.196 49.4705L116.279 49.4571C116.338 50.0055 116.308 50.5701 116.467 51.1024C116.477 51.2099 116.491 51.3201 116.504 51.4276C116.706 51.4868 116.912 51.538 117.119 51.589C116.598 51.6616 116.064 51.6669 115.546 51.597C115.677 51.5352 115.814 51.4761 115.949 51.4196C115.946 51.2664 115.943 51.1104 115.94 50.9545C115.914 50.9599 115.865 50.9706 115.838 50.9761C115.833 50.5432 115.814 50.1104 115.806 49.6776C115.616 49.113 115.707 48.4946 115.632 47.9058L115.433 47.9489C115.436 47.9838 115.436 48.0511 115.438 48.0833C115.339 48.2392 115.277 48.4113 115.183 48.5673C115.13 48.7043 115.081 48.8468 115.038 48.9866L114.963 48.9732C114.934 49.1103 114.904 49.2474 114.877 49.3845L114.775 49.3657C114.773 49.4356 114.77 49.57 114.77 49.6372L114.673 49.6076C114.598 49.8361 114.566 50.0915 114.394 50.2717C114.394 50.2932 114.394 50.3361 114.397 50.3549C114.303 50.5109 114.228 50.6722 114.147 50.8336C114.152 50.8469 114.163 50.8765 114.168 50.89C114.104 51.046 114.045 51.2019 113.991 51.3632C113.967 51.3873 113.919 51.4384 113.895 51.4653C113.873 51.5486 113.827 51.718 113.806 51.8013C113.771 51.7315 113.736 51.6616 113.701 51.5917C113.551 51.39 113.54 51.1184 113.371 50.9304C113.363 50.89 113.344 50.8094 113.333 50.769C113.151 50.519 113.057 50.2125 112.952 49.9276L112.901 49.9437C112.845 49.7877 112.81 49.6184 112.686 49.5054C112.694 49.4733 112.708 49.406 112.716 49.371L112.606 49.3792C112.539 49.0027 112.34 48.6801 112.168 48.3468C112.131 48.3334 112.055 48.3038 112.018 48.2877C111.972 48.5189 111.911 48.7447 111.795 48.949C111.803 49.7985 111.572 50.6265 111.634 51.4787C111.725 51.5083 111.905 51.5648 111.997 51.5943C111.519 51.6669 111.03 51.6535 110.552 51.589C110.807 51.5486 111.062 51.4949 111.247 51.2986C111.263 51.0916 111.269 50.8846 111.269 50.6803L111.341 50.6991C111.381 50.1588 111.438 49.6211 111.467 49.0808L111.553 49.0889C111.505 48.5054 111.688 47.9382 111.647 47.3575L111.722 47.3789C111.736 47.0966 111.765 46.8145 111.841 46.5402C111.926 46.7177 111.994 46.9031 112.053 47.094L112.098 47.0805C112.155 47.2284 112.201 47.3925 112.313 47.5161C112.308 47.5483 112.294 47.6129 112.289 47.6478L112.402 47.6398C112.464 47.8602 112.493 48.1075 112.665 48.2796C112.676 48.3199 112.697 48.4059 112.708 48.4463C112.812 48.5914 112.874 48.7608 112.968 48.9141C113.014 49.0458 113.057 49.1774 113.102 49.3119C113.181 49.4436 113.248 49.5808 113.336 49.7071C113.336 49.7393 113.339 49.8066 113.339 49.8388L113.436 49.8335C113.486 50.0244 113.543 50.2152 113.615 50.4007C113.634 50.4034 113.674 50.4088 113.696 50.4142C113.739 50.4975 113.825 50.6641 113.868 50.7476C114.007 50.5916 113.927 50.2528 114.168 50.2072C114.228 50.0834 114.273 49.9517 114.319 49.8227L114.413 49.8388C114.407 49.8039 114.399 49.7313 114.397 49.6963C114.617 49.2716 114.77 48.8118 115.028 48.4033C115.073 48.2286 115.146 48.0619 115.226 47.9033C115.285 47.7661 115.336 47.6236 115.438 47.5106C115.433 47.4757 115.425 47.4058 115.419 47.3709L115.522 47.3925C115.591 47.1585 115.672 46.9274 115.736 46.6934L115.803 46.7338ZM108.528 46.6343C108.541 46.5886 108.565 46.4918 108.576 46.4462C108.716 46.7258 108.673 47.0322 108.603 47.3252C108.549 47.1801 108.493 47.0349 108.431 46.8924C107.862 46.8843 107.295 46.8817 106.729 46.8924C106.729 47.6182 106.729 48.3468 106.729 49.0753C107.201 49.0834 107.671 49.0753 108.146 49.0808L108.138 49.0135C108.262 48.9355 108.35 48.828 108.407 48.6909C108.396 49.035 108.476 49.4006 108.342 49.734C108.34 49.6641 108.332 49.5216 108.329 49.4517C107.822 49.2555 107.258 49.3873 106.729 49.3576C106.729 50.0458 106.729 50.734 106.729 51.4223C107.285 51.4142 107.848 51.4787 108.399 51.3632C108.431 51.3308 108.495 51.269 108.53 51.2395L108.525 51.1857C108.619 51.132 108.716 51.0781 108.812 51.0244C108.817 51.0056 108.823 50.9653 108.828 50.9464C108.909 50.8362 108.981 50.718 109.062 50.6077C109.014 50.8308 108.952 51.0513 108.893 51.2717L108.815 51.2529C108.804 51.3766 108.793 51.5003 108.785 51.624C107.736 51.6347 106.68 51.6885 105.636 51.5863C105.835 51.5486 106.031 51.4922 106.224 51.4223C106.294 50.3147 106.235 49.2017 106.254 48.0914C106.232 47.6693 106.323 47.2258 106.162 46.8198C106.028 46.7903 105.902 46.766 105.776 46.7284C106.689 46.6235 107.612 46.7446 108.528 46.6343ZM53.7865 46.629C53.7971 46.5832 53.8214 46.4945 53.832 46.4488C53.9715 46.7338 53.9341 47.0483 53.8401 47.3414C53.8133 47.2311 53.7918 47.1182 53.7728 47.0106L53.6604 47.0268L53.6657 46.8978C53.0911 46.8789 52.5165 46.8843 51.9419 46.8897C51.9419 47.6182 51.9419 48.3468 51.9419 49.0781C52.4278 49.0808 52.9139 49.0781 53.3997 49.0808L53.3891 48.9705L53.4938 48.9677C53.5125 48.8549 53.5342 48.742 53.5582 48.629C53.6361 49.0162 53.6252 49.4141 53.5582 49.8013C53.5287 49.6588 53.5046 49.5136 53.4804 49.371C52.9675 49.3362 52.4548 49.3521 51.9419 49.3549C51.9419 50.0432 51.9419 50.734 51.9419 51.425C52.5514 51.3819 53.22 51.5594 53.7865 51.2556L53.7946 51.2126C53.9099 51.1158 54.0092 50.9975 54.0926 50.8712L54.1624 50.9168C54.1219 50.7233 54.2402 50.5781 54.3851 50.476C54.3259 50.6453 54.2643 50.812 54.2268 50.9895L54.1247 50.9625C54.1381 51.0136 54.1624 51.1158 54.1758 51.1642L54.0656 51.1508C54.0307 51.3148 53.9933 51.4761 53.9556 51.6428C52.9273 51.6132 51.8936 51.6911 50.8681 51.5943C51.0531 51.5486 51.2359 51.4975 51.4184 51.4384C51.4558 50.3819 51.4265 49.3254 51.4371 48.2689C51.429 47.7822 51.4614 47.2957 51.3994 46.8118C51.225 46.7903 51.0506 46.7687 50.8762 46.7391C51.8426 46.6128 52.8198 46.7526 53.7865 46.629V46.629ZM40.6146 46.637C40.6682 46.5886 40.7246 46.5375 40.781 46.4891C40.8159 46.7687 40.8105 47.0563 40.7623 47.3359C40.7031 47.1934 40.6657 47.0402 40.5421 46.9407L40.5181 46.895C39.9703 46.8789 39.4197 46.887 38.8722 46.887C38.8694 47.6182 38.8722 48.3495 38.8722 49.0781C39.3232 49.0808 39.7769 49.0781 40.2307 49.0808C40.3166 48.9785 40.4051 48.879 40.4938 48.7823C40.5019 49.0995 40.5421 49.4302 40.4427 49.7393C40.4347 49.6668 40.424 49.5243 40.416 49.4517C39.9379 49.2366 39.3823 49.4033 38.8722 49.3521C38.8694 50.0432 38.8722 50.734 38.8722 51.425C39.3904 51.425 39.9111 51.4437 40.4293 51.4008C40.4293 51.3712 40.424 51.3094 40.424 51.2771C40.4804 51.2745 40.5932 51.2664 40.6495 51.2637C40.7542 51.1373 40.8616 51.0164 40.9556 50.8819C40.9852 50.8927 41.0469 50.9142 41.0765 50.9249C40.9905 50.6965 41.1892 50.5943 41.3396 50.4841C41.2967 50.5271 41.2107 50.6131 41.165 50.6561C41.1622 50.7609 41.1596 50.8657 41.1596 50.9733C41.1273 50.968 41.0631 50.9572 41.0307 50.9518C41.0226 51.0324 41.0039 51.1938 40.9958 51.2717L40.9018 51.2529C40.8937 51.3793 40.8831 51.5056 40.8722 51.632C39.8495 51.624 38.8183 51.6885 37.7984 51.5943C37.9834 51.538 38.1662 51.4814 38.3512 51.4196C38.3783 49.9114 38.3702 48.4033 38.354 46.895C38.1983 46.8198 38.0317 46.7687 37.8681 46.715C38.7809 46.6423 39.7018 46.7338 40.6146 46.637V46.637ZM29.4484 46.5349C29.4914 46.5349 29.5745 46.5322 29.6147 46.5322C29.6362 46.7982 29.6256 47.0671 29.5985 47.3359C29.5343 47.1989 29.4724 47.0537 29.3733 46.9381L29.3409 46.8924C28.7906 46.8817 28.2428 46.8843 27.6951 46.8897C27.6951 47.6182 27.6951 48.3468 27.6951 49.0781C28.2375 49.0242 28.8442 49.2259 29.3275 48.9086C29.3275 49.0995 29.3303 49.2931 29.3329 49.4866C28.828 49.2259 28.2375 49.4006 27.6951 49.3549C27.6951 50.0432 27.6951 50.734 27.6951 51.425C28.165 51.4196 28.6349 51.4492 29.1048 51.4088C29.2201 51.4035 29.3142 51.3551 29.3892 51.2664C29.4054 51.2637 29.4403 51.2609 29.4565 51.2609C29.5907 51.1373 29.733 51.0217 29.843 50.8765L29.9102 50.9249C29.8028 50.6937 30.0177 50.5943 30.1572 50.4787C30.1036 50.5352 30.0498 50.5943 29.9934 50.6533C29.9881 50.7368 29.98 50.8228 29.9719 50.9088C29.7866 51.1024 29.7813 51.39 29.706 51.6347C28.6779 51.624 27.644 51.6885 26.6185 51.5943C26.8065 51.5405 26.9918 51.4841 27.1743 51.4196C27.2011 49.9222 27.1958 48.4194 27.1771 46.9219C27.1394 46.8897 27.0669 46.8278 27.032 46.7982C26.895 46.7795 26.7636 46.7607 26.6293 46.7365C27.5717 46.6182 28.5247 46.7446 29.4699 46.6397L29.4484 46.5349ZM20.0648 46.4784C20.0782 46.5079 20.1024 46.5698 20.1158 46.6021C20.2636 46.6854 20.3682 46.8251 20.4863 46.9488C20.7334 47.172 20.9535 47.422 21.1871 47.6613C21.2488 47.7205 21.3107 47.7796 21.3724 47.8387C21.4261 48.0054 21.5495 48.1156 21.708 48.1882C21.9254 48.5565 22.2906 48.8038 22.5725 49.121C22.704 49.2447 22.8195 49.3818 22.9269 49.527C23.1095 49.6588 23.2652 49.8227 23.3967 50.0055C23.6491 50.2044 23.837 50.4625 24.0277 50.7152C24.0706 49.4464 24.0491 48.1693 24.0385 46.8978L23.9256 46.9113L23.9284 46.8037C23.778 46.7821 23.6249 46.7687 23.4745 46.7391C23.9739 46.6666 24.4841 46.6558 24.9834 46.7391C24.8331 46.7714 24.6773 46.7849 24.5244 46.8063L24.527 46.9113L24.4143 46.8978C24.3821 48.5323 24.4277 50.1668 24.3929 51.8013C24.3632 51.726 24.331 51.6481 24.3042 51.5729C24.0115 51.4168 23.8665 51.1078 23.6007 50.9223C23.574 50.8873 23.5202 50.8147 23.4934 50.7771C23.3941 50.6991 23.3082 50.6077 23.2383 50.5056L23.2115 50.5028C23.0128 50.3039 22.8249 50.0942 22.6369 49.8845L22.6236 49.863C22.3765 49.6238 22.151 49.3629 21.9039 49.1238C21.7992 48.9705 21.6677 48.8414 21.5147 48.742C21.4878 48.7017 21.4368 48.6237 21.41 48.5833C21.316 48.5054 21.2274 48.422 21.1522 48.328L21.1227 48.3226C21.0153 48.1882 20.8999 48.0619 20.7924 47.9302L20.7683 47.9274C20.685 47.8091 20.5723 47.7311 20.43 47.6989C20.4434 48.9086 20.4192 50.1184 20.4434 51.3282C20.6367 51.4653 20.8596 51.546 21.0905 51.5917C20.5938 51.6589 20.0863 51.6642 19.5896 51.5943C19.7883 51.5405 19.9897 51.4814 20.1535 51.347C20.1561 49.828 20.1535 48.3091 20.1535 46.7903L20.0621 46.8037C20.0648 46.6934 20.0648 46.5859 20.0648 46.4784V46.4784ZM14.2844 46.637C14.2977 46.5886 14.3246 46.4972 14.338 46.4488C14.4616 46.7096 14.44 46.9918 14.3596 47.2607C14.3085 47.137 14.2549 47.0134 14.1985 46.8924C13.6266 46.8817 13.0574 46.8817 12.4855 46.8924C12.4882 47.6182 12.4882 48.3468 12.4855 49.0753C12.958 49.0834 13.4306 49.0753 13.9031 49.0808L13.8978 49.0135C14.0159 48.9355 14.1045 48.8307 14.1662 48.7017C14.1743 49.0378 14.1904 49.3792 14.1475 49.7152C14.0776 49.5808 14.0481 49.3522 13.8521 49.3629C13.3984 49.3334 12.942 49.3549 12.4855 49.3576C12.4855 49.9921 12.4909 50.6292 12.4829 51.2637H12.5419C12.6009 51.4922 12.8453 51.5136 13.0306 51.5943C12.515 51.6696 11.9862 51.6589 11.4707 51.5943C11.6398 51.538 11.8116 51.4787 11.9808 51.4196C12.0533 50.2797 11.9941 49.1345 12.013 47.9919C11.9941 47.5994 12.0775 47.1908 11.9218 46.8171C11.7795 46.7929 11.6398 46.766 11.5002 46.7338C12.4238 46.6182 13.3608 46.7472 14.2844 46.637" fill="white"/>
</svg>
